<?xml version="1.0" encoding="UTF-8"?><svg id="Layer_1" xmlns="http://www.w3.org/2000/svg" viewBox="0 0 500 500"><defs><style>.cls-1{fill:#82addc;}</style></defs><path class="cls-1" d="m266.59,67.98c1.65,3.82,2.21,7.9,3.2,11.89-.27.08-.54.17-.81.25-1.19-4.04-2.38-8.09-3.56-12.13.39,0,.78,0,1.17,0Z"/><path class="cls-1" d="m121.33,235.55c-.97.2-1.47.87-1.9,1.71-.36.71-1.03,1.08-1.76.44-.67-.59-.56-1.31.12-1.82,1.11-.84,1.77-2.12,3.12-2.8.99-.5,1.83-1.52,1.73-3.02-.08-1.24.75-2.05,2.09-2.04.55,0,1.28,0,1.34-.51.28-2.28,2.63-2.37,3.79-3.71,1.12-1.28,2.37-2.4,2.47-4.22.07-1.31,1.27-1.27,1.92-1.88,1.92-1.78,4.28-2.96,6.14-4.77,2.36-2.29,4.84-4.48,6.79-7.17.48-.66,1.48-1.01.65-2.21-.4-.58.32-1.15.97-.58,1.14.98,1.39.02,1.47-.7.14-1.22.24-2.37.8-3.54.44-.93-.45-1.75-1.23-2.38-.41-.33-1.23-.17-1.25-1.08.93-.37,1.36.42,1.94.83.43.3.84,1.26,1.32.74.7-.74,2.24-.81,2.04-2.31-.06-.43-.41-.92.15-1.21.53-.27.83.23,1.12.54.92.97,1.65.72,2.37-.26.73-.98,1.51-1.92,2.28-2.88.57-.7,1.17-1.27,2.08-.45.13.12.39.3.46.26.99-.63,1.71-1.52,3.01-1.9,1.34-.38,1.29-1.95.77-3.17-.61-1.43.9-1.51,1.3-1.58,2.33-.42,3.01-2.07,3.48-4.02.44-1.82.47-1.81,2.19-.38-.63-1.39-.41-2.46-.21-3.62.27-1.58-.91-2.8-1.97-3.84-.7-.68-1.17-1.21-.48-2.1.8-1.02,1.58-2.17,3.02-2.21.77-.02.71.76.33,1.14-2.13,2.14-.05,3.89.48,5.77.18.62.68.47,1.11.24,2.23-1.15,4.42-2.38,4.96-5.1.33-1.66,1.82-2.27,2.73-3.4,1.44-1.78,2.97-3.47,2.49-6.03-.11-.61.07-1.26.56-1.58,2.81-1.85,3.28-4.81,3.83-7.76.13-.69.28-1.39.5-2.06.15,3.51-.86,6.8-1.9,10.1-.12.37-.37.69-.48,1.06-.28.93-.73,2.12.17,2.69.93.59,2.27.24,3.09-.46.8-.69,1.74-1.74,1.79-2.68.17-2.82,1.56-5.5.84-8.42-.25-1.03-.45-1.99-1.23-2.77-.71-.71-1.44-1.43-1.76-2.63,1.41.73,1.91,2.03,2.74,3.04.53.65.95,1.38,1.88.22.56-.7,1.58-1.16,2.49-1.43,3.14-.95,4.14-4.07,6.27-6.04.86-.79,1.33-2.03,1.47-3.31.25-2.27,2.04-4.21,4.27-4.77,1.27-.32,1.34.57,1.51,1.44.36,1.79,1.6,2.51,3.26,1.59-.9,1.19-.77,2,.45,2.38,1.32.41,1.43-.62,1.46-1.44.16-4.54,2.57-8.84,1.48-13.52-.16-.69-.24-1.41-.43-2.09-.38-1.36.42-3.95,1.58-4.6,1-.56,1.02.42,1.13.97.42,2.26,1.6,4.23,2.42,6.33.36.93.76,1.27,1.88.75,1.7-.79,3.54-1.21,5.48-.59,1.26.4,1.81,0,1.42-1.46-.33-1.24-.39-2.56-.56-3.84-.07-.51.12-.94.61-1.07.59-.15.76.35.92.77.12.3.19.62.28.93.87,3.2.92,6.49,3.2,9.43,2.21,2.84.8,7.6-2.15,10.63q-1.91,1.96-1.73,4.85c.64.33.86-.37,1.3-.54.85-.32,1.59-.13,1.37.87-.6,2.69,1.38,2.71,3.25,3.33-.47-1.62-1.73-2.44-2.5-4.03,2.49,1.96,3.78,4.39,5.41,6.53.66.87,1.16,1.87,1.67,2.84,1.54,2.95,1.31,4.32-1.08,6.67-.69.68-1.36,1.4-2.13,1.99-1.01.78-.87,1.43.19,1.83,1.87.71,3.8,1.29,5.71,1.91.41.13.66-.02.93-.42,1.38-2.07,1.33-3.24-.35-5.12-1.71-1.92-1.56-2.91.64-4.31,1.6-1.02,2.54-2.72,4.11-3.81.78-.54,2.13-.62,2.3-1.57.2-1.15-.77-2.14-1.3-3.16-.89-1.7-1.87-3.35-2.66-5.11,1.75,2.01,3.04,4.31,4.23,6.68,1.26,2.5,1.99,2.73,4.61,1.71,2.12-.83,3.43-2.49,4.77-4.16.15-.19.34-.49.3-.68-.88-3.69,1.65-6.4,2.67-9.55.49-1.52.99-3.21.81-4.74-.4-3.37.65-6.51,1.06-9.74-.45,6.77.08,13.71-3.15,20.05-.2.4-.57.92-.46,1.24,1.26,3.66-1.59,5.57-3.33,7.93-.29.39-.94.59-.57,1.24.23.4.59.72,1.12.53.58-.21.82-.53.51-1.19-.29-.63.32-.58.64-.59,3.43-.15,5.52-2.28,7.28-4.9.29-.43.5-1.01,1.11-.94.71.09.52.8.63,1.26.27,1.07,1.16,1.89,1.11,3.08,1.6-.64.03-1.46.13-2.21,2.47,1.77,2.63,3.11.64,4.88-.34.3-.83.59-.68,1.05.09.26.62.46.97.51,1.48.19,2.77,1.45,4.48.56.74-.39,1.65-.3,1.56-1.49,0-.14.35-.43.52-.43.44.02.41.38.34.72-.46,2.43,1.76,1.64,2.76,2.09,1.11.5,1.39-.66,1.36-1.52-.05-1.46.73-2.84.35-4.31-.17-.66.44-.83.66-1.24.58-1.08,2.1-1.7,1.35-3.5-.3-.71.93-1.71,1.23-2.74.66-2.29,1.49-4.52,2.35-6.75.13,1.31-.54,2.43-.82,3.64-.23.99-1.05,2,.12,3.02.48.42-.13.96-.33,1.39-1.12,2.46-2.55,4.79-2.98,7.63,1.56-1.58,3.79-2.11,5.02-3.94.09-.14.33-.23.52-.26,4.17-.52,6.33-3.94,9.19-6.35.46-.39.96-.72,1.58-.38.56.31.83.79.78,1.45-.05.68-.15,1.43-.96,1.47-1.93.11-2.51,1.15-2.7,2.95-.13,1.27-1.29,2.04-2.62,1.69-1.75-.46-1.48,1.27-2.16,1.9-.57.51-.95,1.61-.2,2.48.66.77,1.28,1.54,2.2.16.85-1.27,2.92-1.4,3.17-3.35.05-.43.63-.4.88.04.38.67.83,1.34,1.04,2.07.24.88.35,1.75,1.58,1.29,1.08-.4,2.66-.36,2.49-2.13-.08-.83-.55-1.66.67-2.03.09-.03.16-.34.14-.51-.05-.36-.29-.34-.56-.2-1.01.53-1.74.2-1.77-.9-.03-1.12.65-1.65,1.81-1.2.41.16.6,0,.74-.34.12-.31.22-.7-.08-.9-2.94-2.05-1.59-4.8-1.23-7.39.04-.31.16-.6.33-1.2-.88.71-1.51,1.25-2.18,1.73-.24.17-.56.41-.87.12-.29-.27-.21-.64,0-.88,1.16-1.31,2.42-3.7,3.52-3.64,2.05.12,2.19-1.39,3.18-2.12.57-.42,1.27-.66,1.82-.36,1,.56,1.96.18,2.93.14,0,0-.03-.02-.03-.02-.26.36-.51.73-.78,1.08-.89,1.19-.22,2.69,1.3,2.88.16.02.49-.07.49-.12.15-2.17,3.22-2.6,2.98-5.02-.05-.49.15-1.02.32-1.5.71-2.01.78-1.9,2.59-.85,1.32.76,2.73,1.39,4.07,2.13,1.32.73,1.36,1.51.9,2.69-.37.97-1.28,1.83-.81,3,.31.09.48.03.5-.2.08-.94-.05-2.36,1.24-2.12,1.08.2.45,1.49.28,2.35,1.87.42,2.92-.99,4.22-1.81l-.03-.03c-.58,1.36-1.32,2.53-.95,4.3.26,1.26-1.16,2.46-2.59,2.64-.71.95,2.58-.42.46,1.17-.36.27-1.04,0-1.39.52,4.06,2.35,5.78,3.08,10.23.56,1.55-.88,3.25-1.61,4.98-2.01,2.04-.48,3.19-1.66,3.77-3.5.52-1.67,1.25-3.12,3.36-3.83-2.42-.97-.22-2.39-.84-3.63-.81.57-1.44,1.47-2.63,1.12-1.07-.31-1.63-.9-1.51-2.02-.87-.17-1.15.6-1.7.86-1.62.76-3.12.69-4.58-.37-1.44-1.05-2.01-2.58-1.39-4.12,1.35-3.33-1.1-5.1-2.76-7.09-.77-.92-1.37-1.65-1.22-2.84.06-.47.21-.92.72-1.04.55-.12.85.31,1.05.7.23.46.46.99.44,1.47-.13,2.26,1.37,3.31,3.13,4.45.21-3.45,1.38-6.01,4.16-8.25,2.25-1.81,4.15-4.17,6.51-5.96.46-.35,1.01-1.07,1.37-.99,1.63.38,2.56-.08,3.05-1.7.15-.49.76-.4,1.16-.05.54.47,1.09.92,1.57,1.45.39.44.78,1.06.16,1.52-.61.46-.65-.38-.93-.63-.85-.74-1.67-.6-2.44.07-.72.63-.7,1.36-.09,2.05.71.8,1.55.91,2.42.27,2.11-1.57,3.15-3.91,4.33-6.13.46-.86.85-1.75,1.52-2.48.34-.36.76-.61,1.19-.28.44.33.33.85.08,1.24-.27.43-.62.82-1,1.16-1.75,1.6-1.87,4.05-.2,5.69.71.7,1.04,1.58,1.41,2.53,1.19-.9,2.24-1.75,3.35-2.5.31-.21.81-.62,1.22-.15.48.55-.03.94-.35,1.33-.16.2-.35.38-.55.55-4.08,3.55-8.15,7.12-12.26,10.64-.63.54-1.4.94-2.16,1.28-2.85,1.27-3.31,2.4-1.96,5.22.52-.37,1.04-.73,1.55-1.1.52-.38,1.73-.3.68-1.59-.5-.62.36-1.55,1.05-2.08,1.85-1.39,3.96-1.87,6.24-1.77.45.02.95.06,1.15.56.23.57-.07,1.01-.43,1.4-.96,1.01-2.18,1.61-3.44,2.15-.39.17-1.17.16-1.08.64.27,1.42,1.71,2.18,2.21,3.54.23.61.98.08,1.37-.11,1.03-.51,1.52-1.4,1.78-2.57.53-2.44,1.28-4.83,2.24-7.27-.7,1.92.58,3.16,1.24,4.62.33.73.6.74,1.09.28.8-.75,1.99-1.37,2.33-2.3,1.43-3.84,4.88-6.01,7.21-9.09,2.4-3.16,5.61-5.55,8.38-8.35,4.99-5.04,10.38-9.82,14-16.2-1.14.12-1.88,1.35-3.59,1.17,2.82-2.53,6.63-3.16,8.49-6.28-1.28,1.72-2.56,3.44-3.84,5.16-2.37,3.19-4.96,6.22-6.85,9.75-.2.37-.64.62-.98.9-.4.33-1.13.59-1.18.95-.45,3.16-3.75,3.72-5.29,5.87-.55.77-.98,1.17-.04,1.98.97.83.75,1.72-.44,2.25-.71.32-1.44.57-2.17.85-1.54.6-1.65,1.22-.39,2.33,1.49,1.31,1.54,2.08.25,3.77-2.2,2.86-1.73,7.52.93,9.89.64.57,1.1.43,1.71.04.96-.6,1.59-1.97,3.17-1.23.38.18.8-.53.67-1.17-.46-.28-.84.12-1.26.18-2.34.32-4.42-.87-4.91-2.86-.51-2.08,1.07-4.67,3.26-5.33,2.03-.62,4.57.52,5.35,2.43.17.4.09,1.02.69,1.03.61,0,.81-.61.99-1.06,1.09-2.71,2.71-5.1,4.34-7.5.39-.57.85-.91,1.47-1.18,2.35-1.04,2.75-2.58,1.22-4.65-.46-.63-.36-1.12.29-1.42.72-.33,1.8-.56,2,.37.25,1.18,2.17,2.68-.46,3.72-.89.35-.95,1.56-.36,2.57.62,1.06,1.38.95,2.3.53,1.57-.72,2.44-1.89,2.39-3.65-.02-.71-.11-1.42-.14-2.14-.04-.68.31-1.12.97-1.26.7-.14,1.29.04,1.65.7.09.17.11.37.18.55.44,1.13-.37,2.8,1.27,3.4,1.94.71,3.89.35,5.62-.65,1.37-.79,2.44-.58,3.51.43.79.74.86,1.49.19,2.39-1.48,2.01-3.47,2.99-6.02,3.3.56-.69,1.28-.85,1.89-1.18.88-.48,1.59-1.09,1.77-2.17.1-.62.58-1.33-.03-1.81-.62-.49-1.35.01-1.73.44-1.88,2.11-3.96,1.59-6.15.67-.91-.38-1.89-.58-2.67.36-.78.93-.63,1.97-.23,2.94.55,1.34,2,1.12,3.01,1.23,3.63.4,3.65.3,4.07,3.94.18,1.56.84,1.94,2.36,1.31,2.26-.93,4.35-2.23,6.83-2.7,1.06-.2,1.51-1.52,1.81-2.6.52-1.88,1.23-3.69,2.24-5.36.53-.87,1.2-1.96,2.42-1.41,1.21.55.93,1.76.52,2.73-.74,1.73-1.12,3.63-3.56,4.19-.92.21-1.47,1.98-2.19,3.03.58.51.92.01,1.27-.16,1.41-.69,2.48-2.15,4.42-1.59.44.13,1.25-.38,1.48-1.07,1.17-3.47,4.21-4.92,7.05-6.57.78-.45,1.64-.8,2.5-1.05,1.11-.32,2.64-1.21,2.3,1.24-.05.36.18.41.44.45.38.06.63.28.42.65-.1.18-.51.38-.64.31-1.21-.63-1.75.24-2.39.97-2.34,2.67-4.84,5.07-8.77,4.99-.72-.02-.98.89-1.74,1.08-1.73.42-3.52.51-5.19,1.38-2.57,1.34-2.65,1.52-1,4.04,1.07,1.63,2,3.09,4.44,1.73,0,.19,0,.37,0,.56-1.28.89-2.61,1.71-3.82,2.69-.8.65-2.32,1.18-1.83,2.41.5,1.23,1.92.62,2.99.49.37-.05.75-.06,1.44-.11-1.29,1.44-.58,1.92.65,2.51,1.49.72,1.42,2.05.01,2.78-.39.2-.84.59-1.26.31-.61-.41-.15-.91.06-1.37.55-1.23-.09-1.93-1.17-1.62-1.25.35-1.95-.88-3.04-.64-1.67.38-3.61,2.68-3.48,4.4.13,1.69-1.08,3.25-.2,5.07.38.79-.86,1.65-1.66,1.88-3.71,1.07-5.74,4.24-8.49,6.51-.05.04-.09.09-.14.14-2.46,2.37-2.38,2.37-2.46,5.82-.08,3.18-1.99,5.23-4.65,6.68-.84.46-1.55.89-2.1,1.83-1.33,2.3-4.69,2.84-6.85,1.3-2.16-1.54-2.59-4.63-.84-6.91.54-.7.92-1.37,1.06-2.21.33-1.94,1.36-3.46,2.81-4.75,1.3-1.16,1.67-3.13,3.59-3.84,1.05-.39,1.99-.58,2.98-.19,1.14.45.56,1.37.49,2.17-.1,1.13,1.49,2.1,2.61,1.55,1.26-.61,2.47-1.35,3.44-2.68-2-.04-3.76-.27-5.04-1.82-1.64-1.98-1.64-4.32.17-5.98,1.2-1.1.47-2.1.05-3.16-.04-.1-.15-.22-.25-.25-.74-.23-4.14,2.63-4.08,3.44.03.35.01.67-.29.86-.45.28-.75-.02-.89-.41-.18-.5-.44-.56-.87-.3-.42.26-1.15.35-1.06.96.14.91,1.19.06,1.58.65-.87,2.28-2.96,2.34-4.89,2.71-1.6.3-3.19.45-3.27,2.78-.03.96-1.04,1.24-1.87.34-.79-.86-1.72-1.63-2.33-2.6-1-1.58-2.2-1.65-3.61-.8-1.69,1.01-4.06,1.5-3.61,4.32-2.4,1.65-2.15,4.26-2.5,6.68-.09.64-.65,1.4-1.46,1.39-3.65-.08-7.04,1.94-10.75,1.29-.57-.1-1.17-.05-1.75-.11-1.4-.15-2.25.7-2.11,2.08.07.73.49.8,1.08.71.57-.09,1.16-.23,1.72-.16.66.09,1.25.43,1.13,1.29-.14.91-3.06,3.08-3.96,2.84-.82-.22-1.22.16-1.57.76-.99,1.71-2.32,3.08-4,4.16-1.81,1.16.35,1.63.55,2.6-.72.21-1.53-.08-2.23.42-.49.35-1.26.14-1.55-.41-.49-.9-1.02-1.55-2.1-1.04-1.5.71-3.58.44-4.26,2.56-.33,1.05-.65,2.11-2.07,2.25-.89.09-.96.8-.69,1.47.65,1.58,1.8,2.55,3.57,2.37,4.52-.46,9.05-.99,13.44-2.1,1.59-.4,3.08-.8,4.74-.74,1.62.06,2.3-1.17,2.8-2.54.98-2.67,2.12-5.28,3.68-7.68.53-.82,1.11-1.62,1.93-2.17.84-.57,1.6-.66,1.83.64.01.06.06.15.03.19-.95,1.35,3.55,1.07.87,3.05-1.25.93-.62,2.67-1,4.01-.19.68-.23,1.41-.36,2.11-.2,1.02.15,1.45,1.23,1.32,1.55-.18,3.1-.3,4.65-.4.7-.05.8-.26.66-.97-.68-3.46,1.2-6.67,4.55-8.05,1.47-.6,3.02-.71,4.55-.97.55-.09,1.03.09,1.47.38,1.74,1.13,2.86,5.1,2.56,7.13-.27,1.83-1.72,2.39-2.65,3.52-1.15,1.4-2.64,2.08-4.41,2.11-.93.01-1.42.36-1.55,1.32-.16,1.13-.85,1.98-1.62,2.81-1.18,1.27-.9,2.09.73,2.55.66.19,1.63.22,1.5,1.16-.1.79-1.01.66-1.63.71-.83.06-1.39.3-1.85,1.12-1.43,2.56-3.7,3.53-6.57,2.99-.7-.13-1.27-.33-1.52.57-.24.85-.12,1.57.8,1.91.48.18,1,.35,1.5.37,1.32.05,2.01.71,2.26,1.97.26,1.3,1.58,2.14,1.61,3.55l-.05-.06c-.09,6.48-3.78,9.94-9,10.79-1.49.24-2.96.13-4.38-.51-.5,2.03.08,2.56,2.12,3.14,2.65.75,5.24,2.2,7.45,4.03.47.39.63.94.81,1.51.8,2.58,2.24,3.61,4.94,3.6.38,0,.85-.13,1.06.25.32.55-.27.76-.53,1.09-1.47,1.9-2.94,3.8-2.44,6.46.19,1-.19,1.88-.81,2.71-2.53,3.43-5.79,5.9-9.74,7.47-.59.23-1.17.46-1.88.74,1.14,1.03,2.26.93,3.43.43.42-.18.83-.38,1.27-.5.76-.21,1.8-1.09,2.24-.21.4.8-.93.95-1.51,1.35-1.25.86-1.25,1.45.18,2.16.99.49,1.85.99,1.76,2.27-.39,5.52-.87,11.03-4.36,15.67-2.24,2.98-4.8,5.59-8.57,6.71-2.46.73-3.13,4.16-1.58,7.03-1.59-1.51-3.55-2.65-4.22-4.99-.3-1.06-1.94-1.14-3.08-.41-2.87,1.82-5.85,3.33-9.43,2.95-5.3-.58-8.43-3.6-9.47-9.33-1.29,1.21-2.65,2.16-4.34,2.5-.22.05-.61.31-.59.38.49,1.92-1.18,3.96.31,5.82.43.54.78,1.23-.12,1.58-1.74.68-2.66,2.22-3.91,3.43-4.86,4.72-12.57,3.31-15.48-2.79-.68-1.43-.69-2.9-.5-4.37.15-1.14.41-2.2-1.2-2.68,2.29-1.18,2.45-1.69,1.07-3.47-.93-1.2-1.69-2.34-1.47-4.02.16-1.16-.27-1.68-1.88-1.36-3.62.72-7.21,0-10.57-1.56-.76-.35-.87-1.26-1.16-1.97-1.59-3.82-2.98-4.56-7.09-3.9-1.02.16-2.87.66-2.9-.3-.04-1.18,1.75-.64,2.76-.73,1.34-.12,2.73.08,3.94-.83-.44-.67-1.18-.46-1.74-.69-.64-.25-1.27-.61-1.2-1.34.07-.77.78-.96,1.47-.98.39-.01.78.05,1.17.02.23-.02.63-.17.64-.28.07-1.33-1.35-1.58-1.88-2.51-.43-.77-.81-.12-1.17.22-2.61,2.46-4.52,2.8-6.68,1.2-1.78-1.32-2.35-3.68-1.41-5.75.85-1.86,3.13-3.04,5.13-2.69.52.09,1.2.67,1.55-.12.42-.96-.64-.74-1.02-.97-1.54-.9-2.44-2.15-2.31-3.96.07-.96-.29-1.26-1.19-1.27-2.35-.02-4.41-.91-6.35-2.18-.79-.52-1.61-1.25-2.5-.09-.18.24-.55.4-.86.13-.42-.36-.12-.68.1-1,.27-.39.95-.62.53-1.27-.38-.58-.98-.52-1.58-.49-1,.04-1.98.32-3,.11-.33-.06-1.02.19-1.05.38-.33,2.16-1.94,1.63-3.39,1.95-1.53.34-2.96,1.24-4.56,1.57-1.06.22-2.18.23-3.53.97,2.21.03,4.24-.23,5.33,1.87-2.02-1.76-4.54-.79-6.8-1.28-.38-.08-1.19.32-.82.68,1.34,1.26-.06,1.6-.6,2.22-.96,1.11-.86,3.73.19,4.46,2.63,1.83,2.68,2.6.17,4.89,1.12.84,2.44,1.08,3.7,1.41,3,.78,5.95,1.9,9.15,1.45.54-.08,1.09.01,1.31.59.23.64-.08,1.17-.6,1.5-.77.48-1.54.99-2.39,1.29-1.02.36-1.77-.25-1.7-1.23.09-1.29-.65-1.55-1.58-1.75-2.54-.53-5.03-1.2-7.51-1.96-1.38-.42-2.77-.5-4.17.17-1.03.49-1.95.38-2-1.11-.01-.38,0-.78-.55-.87-1.48-.26-4.05,2.27-3.53,3.64,1.3,3.4,1.07,7.31,3.73,10.27,1.02,1.14.44,2.64-.92,3.43-1.66.97-4.29.79-5.6-.57-.9-.93-1.94-1.27-3.13-1.26-4.31,0-8.55.6-12.63,1.99-2.43.83-3.48,2.99-4.54,5.08-.86,1.69-1.27,3.57-3.27,4.62-.93.49-1.14,2.03-.95,3.36.2,1.38.93,2.73.45,4.23-1.11-.74-.29-2.1-1.03-3.05-.94.37-.72,1.23-.85,1.92-.11.53-.33,1.05-.94,1.08-.57.03-1.04-.37-1.15-.89-.16-.73-.79-1.49-.29-2.21.48-.7,1.03.09,1.54.21.76.17.83-.42,1.02-.88,1.19-2.82.09-5.44-.78-8.06-.2-.6-.83-.79-1.43-.87-1.93-.24-3.76.12-5.31,1.28-4.14,3.1-7.17,7.27-9.46,11.72-1.26,2.46-2.47,4.6-4.45,6.55-1.49,1.48-2.32,3.67-3.28,5.63-.73,1.48-1.59,2.85-2.83,3.9-2,1.69-3.4,3.91-5.26,5.72-.43.42-.87.84-.63,1.67.67,2.37-.04,4.2-2.18,5.58-1.61,1.04-2.37,2.06-1.52,4.14.57,1.41.6,3.19.38,4.74-.34,2.28-1.92,3.7-4.18,4.3-.5.13-1.01.24-1.5.41-4,1.35-7.62-1.44-7.13-5.69.2-1.7-.32-3.45.64-5.13.66-1.16,1.5-1.74,2.7-1.94,2.76-.46,4.42-1.94,5.07-4.56.52-2.14,2.21-3.76,4.38-4,.9-.1,1.21-.65,1.53-1.28,1.17-2.31,2.47-4.57,3.43-6.96,1.13-2.81,3.55-4.59,5.12-7.03.31-.49.92-.85,1.08-1.36,1.87-6.04,7.7-8.88,11.05-13.72.58-.84,1.27-1.62,1.93-2.45-1.34-.52-4.21.38-4.96,1.73-.59,1.06-1.1.85-1.82.36-.27-.18-.51-.4-.77-.59-3.77-2.82-3.18-2.12-6.94.37-.82.54-.28.92,0,1.41.2.35.26.77-.21.99-.34.16-.61-.02-.79-.34-.7-1.26-1.36-.86-2.05.03-.39.51-.84,1.18-1.56.89-1.47-.6-1.74.71-2.09,1.41-.52,1.06.79.82,1.23,1.23.27.25.62.42,1.44.96-4.1-.37-5.91,3.02-9.01,3.84-1,.26-.52,1.17-.05,1.74,1.3,1.55,2.42,3.29,4.69,4.38-1.53.45-2.28.03-2.82-.85-.93-1.52-2.37-2.56-3.56-3.84-.44-.47-1.07-.72-1.58-.6-.64.15-.61.91-.57,1.46.1,1.39-.42,2.41-1.71,2.96-1.2.51-1.66,1.47-1.55,2.65.14,1.5-.63,2.13-1.92,1.97-1.24-.15-1.95.39-2.63,1.23-2.46,3.04-4.33,6.44-6.07,9.93-.34.68-.26,1.08.4,1.4.06.03.11.06.17.1,1.66,1.18,1.44,3.18,2.15,4.67.62,1.29,2.38,2.24,2.63,4.04.19,1.35-1.02,2.82-2.29,2.87-1.37.05-2.49-1.16-2.25-2.74.2-1.33-.18-1.35-1.17-.88-1.5.71-2.97.46-4.22-.51-1.3-1-2.17-.65-3.09.5-1.2,1.49-2.89,2.65-2.96,4.85-.01.45-.41.78-.82,1.03-2.9,1.83-4.53,5.53-3.58,8.74.5,1.7-.03,4.05,1.58,5.02,3.19,1.92,6.55,3.69,10.46,3.77,1.88.04,3.75.11,5.63.17.76.03,1.6.2,1.57,1.08-.03,1.03-.96.84-1.65.74-1.93-.27-3.85.41-5.75-.15-.06.27-.13.39-.1.5.17.68,1.53,1.28.64,1.92-.87.63-1.37-.64-1.81-1.23-1.29-1.69-2.53-2.18-4.41-1.05-2.49,1.49-4.81,1.63-7.29.04-1.67-1.07-3.33-.51-5,.22-2.55,1.13-4.69.61-6.13-1.22-1.23-1.57-1.38-3.23-.36-4.87,1.03-1.65,2.71-2.15,4.58-1.86.62.1,1.21.44,1.81.68.69.27,1.41,1.12,2.1.53.59-.51.37-1.53.14-2.23-.56-1.78-1.28-3.52-1.97-5.25-.34-.84-.82-1.05-1.59-.32-.77.73-1.76,1.02-2.66.32-1.23-.97-1.69-.32-2.08.77-.52,1.47-1.33,2.66-2.98,3.04-2.72.63-5.35-1.5-5.5-4.44-.03-.54.43-1.29-.29-1.57-.85-.33-.94.54-1.31,1.04-.87,1.15-2.96.66-3.62-1.03-.61-1.56-1.44-2.51-3.13-2.75-.67-.1-1.05-.72-1.26-1.37-.36-1.1-1.17-1.64-2.27-1.83-.06.93-1.73,1.16-1.03,2.49.29.55-.26.97-.86.99-.49.01-1.11-.37-.85-.78.97-1.56-.59-1.62-1.23-2.48-.8,2.05-1.61,3.87-1.56,5.93.02.91-.21,1.79-.35,2.68-.44,2.71-.1,4.57,2.59,5.8,1.01.46,1.63,1.02,1.54,2.17-.26,3.56,2.36,5.18,4.69,7.01.63.5,1.09.07,1.56-.26.79-.56,1.55-1.16,2.49-1.5,1.54-.54,2.87-.26,3.83,1.04,1.05,1.43,2.44,2.77,1.88,4.84-.02.06,0,.13,0,.19.05.63,3.94,4.11,4.55,3.97,1.37-.31,2.6-.32,3.42,1.05.62,1.04.34,2.09-.86,3.62,1.45,1.9,3.15.13,4.72.23,1.45.09,2.52.28,3.19,1.62.24.48.62.84,1.15.99,2.48.75,4.97,1.48,7.45,2.23.72.22,1.21-.25,1.8-.51,1.52-.69,2.8-.12,3.5,1.38.6,1.3.04,2.13-1.03,2.72-1.29.72-2.61.21-3.32-1.35-.65-1.44-1.23-2.68-2.98-1.08-.41.38-.84-.14-1.11-.5-1.13-1.51-2.96-1.44-4.52-1.96-.66-.22-1.16.35-1.54,1.4,2.18-.58,3.23.86,4.41,2.07.35.35.53.76.24,1.22-.21.34-.58.67-.96.41-.91-.63-1.4.73-2.33.36-1.36-.54-1.84-1.04-2.15-3.07-2.34.84-2.57.62-2.46-1.79.04-.82-.37-1.91-1.13-2.26-1.58-.73-3.29-1.17-4.95-1.7-.45-.14-.85.03-1.27.3-2.47,1.59-4.15.79-4.5-2.09-.03-.24-.09-.48-.2-1.01-.8,1.32-2.12,1.12-3.12,1.68-.25.14-.79.18-.93.03-1.3-1.44-3.2-.93-4.75-1.51-1.39-.52-2-1.5-2.03-2.99-.01-.75.79-1.69.03-2.19-1.31-.86-1.78-2.59-3.43-3.05-1.57-.43-2.93-1.29-4.72-1.36-2.49-.1-4.46-1.63-5.73-3.86-.19-.34-.29-.73-.78-.78-.48.52-.36,1.21-.53,1.82-.62,2.18-2.63,3.62-4.81,3.44-2.04-.16-3.59-1.81-3.78-4.01-.1-1.21.31-2.56,1.07-3.13,1.56-1.17,1.75-2.92,2.52-4.39.76-1.45.26-3.04-.05-4.51-.18-.87-1.03-1.14-1.87-.62-2.01,1.26-4.17,2.3-5.89,3.98-.37.36-.79.71-1.25.91-1.38.62-3.14.79-3.15,2.89-2.21.51-1.86,2.87-3,4.16-.59.67-.53,1.14.1,1.97,1.1,1.45.27,3.24.05,4.81-.46,3.23-4.65,5.65-7.84,4.79-2.91-.78-3.53-.45-4.31,2.37-.34,1.24-.63,2.49-.95,3.75.14.01.3.07.35.02.64-.65,1.19-1.98,2.22-1.36,1.1.67.33,1.86-.07,2.8-.6,1.41-1.65,2.48-2.74,3.5-.58.54-.9.85.08,1.34,1.18.6,2.52.94,3.4,2.11.4.53,1.05.06,1.58-.21,2.59-1.34,4.12-1.13,6.21,1.04.71.73,1.32.64,2.07.29,1-.46,1.89-.33,2.96.04,1.28.45,2.69-.43,4.12-.05.59.16.34-.68.46-1.07.5-1.54,2.16-2.25,3.16-1.13.98,1.09,2.28,1.4,3.43,2.04,1.06.59,1.67,1.24,1.24,2.46-.46,1.32-1.68,1.73-2.67,1.17-1.21-.69-2.75-.36-3.79-1.62-.52-.63-1.58.56-2.49.27-.14-.04-.39.25-.52.2-2.08-.84-4.29,1.35-6.34-.31-.52-.43-.86-.1-1.21.42-2.25,3.36-5.52,3.35-7.46-.1-.69-1.23-1.28-1.35-2.67-1.19-2.22.25-4.55.05-6.77-.33-2.91-.5-4.1-3.59-3.4-6.42.77-3.1,1.83-6.11,2.73-9.28-1.74,2.38-4.01,1.47-6,1.05-1.62-.34-2.71-.08-3.79,1.12-2.28,2.55-4.8,4.75-8.45,5.07-.58.05-1,.43-1.41.92-1.16,1.37-2.54,1.11-3.34-.5-.62-1.24-.76-2.75-2.07-3.6-.24-.16-.37-.51-.11-.63,2.46-1.12.82-4.01,2.76-5.43-1.18-.31-1.86-.36-2.25.64-.32.83-.96,1.22-1.87.79-.52-.25-.83-.68-.65-1.26.27-.88.98-1.25,1.83-1.08,2.05.42,3.77.09,5.18-1.63.83-1.02,2.17-1.1,3.41-1.12,2.02-.02,2.79-.76,2.88-2.84.05-1.11.75-1.73,1.77-2.07.92-.31,1.66-.33,1.96.83.2.78.57.18.8.03,1.92-1.24,3.46-2.93,5.19-4.4.36-.31.48-.58.14-.96-.29-.33-.38-.69.03-1,.42-.31.99-.3,1.27,0,1.73,1.9,3.51.53,5.16,0,2.31-.74,4.16-2.36,6.04-3.85,1.17-.93.9-2.6,1.72-3.78.24-.35-.48-.78-1.1-.62-.39.1-.82.11-.98-.35-.15-.42.07-.74.49-.92.18-.08.5-.18.49-.26-.14-2.06,1.77-2.37,2.87-3.32,1.44-1.25,1.81-2.77,2.26-4.59.51-2.06.14-3.77-.32-5.59-.28-1.13-.5-2.35-2.37-1.73-1.7.56-3.49,0-4.53-1.43-.84-1.15-.91-2.67.3-3.89.36-.36.53-.76-.02-1.12-.41-.27-.83-.43-1.22.02-.51.59-1.06,1.16-1.47,1.81-1.83,2.9-3.84,5.68-5.55,8.67-1.73,3.02-3.9,5.72-7.26,7.8,2.2.36,4.18.03,5.89,1.11.43.27.83-.48,1.23-.78,2.12-1.61,5.01-1.24,6.65.86.81,1.03.47,3.12-.66,4.09-2.57,2.2-4.72,2.05-6.99-.5-.3-.33-.47-.64-1.09-.55-3.54.54-7.1.2-10.65.15-2.55-.04-3.78-2.51-2.52-4.75.87-1.54,2.12-2.62,3.94-2.87.81-.11,1.49-.38,1.95-1.11,3.64-5.71,8.23-10.64,12.78-15.6.77-.84,1.34-1.87,1.98-2.83.34-.51.31-1.06-.26-1.33-1.4-.66-.93-1.53-.46-2.55.8-1.74,1.73-3.31,3.53-4.23.79-.4,1.76-.8,2.41-.44,2.86,1.61,4.22-.49,6.12-2.21-1.71-.22-2.9-.68-2.33-2.53.23-.74-.52-.76-.89-1.05-1.43-1.07-1.86-2.74-.92-3.87.95-1.14,2.15-1.46,3.45-.6,1.3.86,1.5,2.8.31,4.09-.59.64-.57.83.13,1.2.58.3.5.98.77,1.69,2.15-3.47,5.28-5.78,8.4-8.07,1.07-.78,1.25-1.28.14-2.15-.52-.41-1.03-1-1.1-1.77.72.6,1.44,1.2,2.21,1.83.82-1.75-.08-2.87-1.21-3.88-.36-.32-.87-.39-1.26-.09-.4.3-.48.72-.17,1.2.21.31.34.67.5,1.01-1.03.56-1.16-.3-1.46-.91-.52-1.06-1.17-1.38-2.33-.71-1.57.9-3.4,1.39-4.9,2.3-1.45.88-2.95,1.32-4.49,1.83-1,.33-1.91-.24-2.97.11-4.24,1.38-8.34,3.16-12.69,4.2-.51.12-1.2.22-.96,1.13.19.7.63.72,1.18.66.13-.01.26,0,.39,0,1.73-.03,2.32,1.09,2.67,2.54.15.62.31.99-.51,1.33-1.4.58-2.77,1.1-3.84-.34-.66-.89-1.17-1.25-2.29-.85-1.05.37-1.91-.4-2.53-1.12-.74-.85-1.44-.85-2.36-.42-1.48.69-3.06,1.01-4.66,1.3-3.76.69-7.09,2.3-10.04,4.73-1.44,1.18-3.35,1.56-4.74,2.96-3.79,3.83-5.2,8.34-4.42,13.6.05.32.14.66.09.96-.48,2.72.02,5.29.72,7.95.78,2.99,3.56,7.06,6.36,6.58,2.87-.49,4.65,2.41,7.3,1.28.35-.15.86.07,1.02.42.53,1.19,1.54,1.46,2.68,1.57.72.07,1.24.53,1.43,1.17.19.67-.46,1.02-.92,1.3-.65.39-1.26.12-1.72-.43-.29-.34-.59-.7-.76-1.11-.46-1.09-1-.8-1.52-.1-.33.45-.4,1.18-1.19,1.05-.79-.13-.56-.91-.93-1.59-.62,1.22-1.1,1.31-2.2.33-2.97-2.62-9.24-1.83-11.9,1.27-3.14,3.66-10.3,4.03-13.7.72-.49-.48-.93-1.09-.84-1.69.49-3.01-.7-6.19,1.04-9.1.88-1.48,1.35-3.17-.75-4.3-.49-.26-.69-.8-.39-1.35.32-.59.88-.79,1.49-.59.48.16.91.49,1.37.71,1.71.84,3.21.04,3.39-1.82.15-1.61,1.01-2.95,1.76-4.28,1.06-1.87,1.86-3.84,2.73-5.79.4-.9.85-1.76,1.51-2.48,2.51-2.72,5.22-5.27,7.49-8.17,2.08-2.66,5.08-3.78,7.82-5.19,2.58-1.33,5.16-2.68,7.72-4.06.86-.46,1.64-1.01,2.69-.97.51.02,1.19-.19,1.15-.81-.12-1.76.87-3.45.01-5.29-.82-1.77.64-3.93,2.73-4,1.47-.05,2.08-.79,2.61-1.88.57-1.17,1.16-2.33,2.15-3.21,1.54-1.37,2.66-2.93,2.99-5.07.2-1.28,1.14-2.24,2.46-2.48,1.14-.21,1.83-.83,2.47-1.7.74-1,1.67-1.79,2.84-2.31,1.45-.64,2.72-1.51,3.6-2.86.36-.55.85-1.08,1.48-1.22,2.84-.61,3.48-2.93,4.24-5.21.47-1.39.79-2.81,1.55-4.13,1.18-2.02,2.91-2.62,4.76-1.68,3.31,1.67,5.53.08,7.71-2,.67-.64,1.37-1.21,2.21-1.56,1.95-.81,3.63-1.92,4.9-3.66,1.08-1.48,2.68-2.42,4.03-3.62,1.09-.97,2.26-1.39,3.7-.46,1.05.68,1.78.09,2.2-1.02.76-1.99,1.39-2.27,3.32-1.37.58.27.98.15,1.46-.05,1.5-.61,2.95-1.36,4.5-1.79,1.45-.4,1.74-1.18,1.71-2.54-.07-2.85,1.52-4.8,3.86-4.97,2.63-.19,5.19,1.83,5.54,4.39.28,2-1.76,5.56-3.62,5.52-1.54-.03-3.39-.34-4.6-1.64-.67-.72-1.28-.74-2.07-.41-1.73.73-3.47,1.44-5.2,2.16-.48.2-.81.47-1.05,1.02-.56,1.26-1.49,1.83-2.98,1.38-1.02-.31-1.94-.05-2.14,1.27-.21,1.4-1.17,2.11-2.41,2.52-.93.31-1.77.97-2.65,1.15-4.57.96-7.58,4.64-11.63,6.48-1.77.8-2.76,2.02-2.73,4.21.04,3-2.91,5.16-6.29,4.79-2.72-.3-4.51.9-6.42,2.74-2.46,2.36-4.84,4.79-7.15,7.27-2.18,2.34-4,4.87-7.04,6.48-1.85.98-3.04,3.44-4.62,5.16-.6.65-.88,1.32-.48,2.28.59,1.43.17,2.69-1.14,3.56-.86.57-.91,1.31-.69,2.2.17.71.51.96,1.25.77,2.69-.68,5.38-1.31,8.07-2,.42-.11,1.03-.3,1.15-.61.49-1.21.86-1.13,1.77-.28.66.61,1.71.16,2.61-.03,2.47-.53,4.46-2.11,6.65-3.2,1.03-.51,1.44.44,2.13.08,2.14-1.13,4.72-1.39,6.49-3.27.91-.97,2.05-1.28,3.1-.35.98.87,1.45.75,1.88-.43.21-.59.59-1.11.9-1.68-2.98-.07-4.52-.97-5.12-2.97-.58-1.91.04-3.79,1.62-4.79,1.48-.94,2.98-.86,4.35.19,1.57,1.2,1.79,3.48.8,6.14,1.31-.97,2.05-2.51,3.34-3.53.77-.61,1.3-1.61,1.76-2.53,1.05-2.08,1.78-4.21.5-6.52-.26-.48-.47-1.08-.2-1.79.79,1.06.71,2.51,1.79,3.43.82-.62.99-1.59,1-2.38.01-2.42,1.35-4.09,2.81-5.78,1.68-1.94,1.72-2.92.48-5.2-2.05-3.76-.77-7.73,3.03-9.41,3.36-1.48,7.53.51,8.77,4.19,1.06,3.14-1.06,6.82-4.55,7.9-.68.21-1.4.33-2.03.63-.79.38-1.46.71-.94,2.01.66,1.64-.61,2.94-2.51,2.85-.38-.02-.74-.27-.98.24-1.12,2.46-2.89,4.61-3.26,7.42-.1.79-.07,1.27.8,1.38,1.14.14,2.08.7,2.99,1.34.67.47,1.08.49,1.97,0,1.06-.6,2.63-.47,3.96-.36,2.36.2,4.21-1.08,6.23-1.88.52-.2.87-.77,1.37-1.07,3.29-1.94,3.86-4.24,1.97-7.74-.46-.86-1.14-1.69-1.09-2.84,1.04.06,1.2.8,1.45,1.43.31.78.63,1.56,1.28,2.15,1.11,1.02,1.83,1.59,2.93-.34,1.16-2.04,3.07-3.65,4.63-5.47.72-.84,1.36-1.75,1.34-2.94.72-1.44,2.03-2.44,2.87-3.79-1.63.79-2.99,1.76-2.82,3.84Zm20.29,38.59c.6-.64,1.19-1.28,1.86-1.99-1.56-.44-3.07-.91-4.96-.82,1.11,1.14,2.53,1.53,3.11,2.81.29.41.55.84.86,1.24.31.4.18,1.34,1.02,1.06.67-.22,1.23-.74,1.17-1.6-.04-.64.14-1.52-.2-1.86-.55-.54-1.06.39-1.64.57-.43.13-.81.39-1.21.59Zm10.99-15.21l4.77,1.2c3.04-.08,2.99-.07,2.6-3.28-.18-1.47-.07-2.97-.14-4.46-.04-.95.05-1.95-.68-3.1-1.86,2.21-4.39,3.73-4.78,6.89-.14,1.16-.58,2.23-1.78,2.75-.38.8-1.06,1.11-1.87,1.45-2.44,1.03-2.5,1.63-.79,3.06.49.41.77.28,1.17.12,1.52-.59,3.05-1.19,4.83-1.88-1.55-.71-2.99-1.14-3.34-2.77Zm205.98-61.98c.78-.24,1.31-.02,1.88.14,2.42.66,3.44-.09,4.1-2.56.43-1.61,1.01-3.18,1.75-4.7.39-.82,2.35-2.07-.12-2.93-.13-.04-.15-.47-.17-.73-.06-.75-.55-1.02-1.19-.98-1.39.1-2.84-.08-3.6,1.64-.45,1.03-1.69,1.52-2.65.96-1.22-.71.28-1.15.44-1.74.13-.49,0-1.11-.17-1.61-.21-.58-.75-.33-1.18-.25-2.03.38-4,1.06-6.08,1.28-.91.1-2.53-.24-2.28,1.31.2,1.29,1.51.33,2.32.4.13.01.26-.01.39-.02.98-.04,2.18-.24,2.48.95.32,1.25-.79,1.84-1.76,2.19-1.27.46-2.62.72-3.92,1.11-.64.2-1.21.58-1.17,1.36.04.71.72.7,1.17.8,3.4.76,6.79,1.19,10.04-.63.28-.16.59-.29.9-.35.45-.1.94-.12,1.15.42.17.42-.04.75-.39.99-.43.29-.84.64-1.31.83-3.41,1.39-6.64,3.26-10.3,4.03-1.07.23-2.08.72-2.47,1.71-1.34,3.34-3.51,5.46-7.3,5.66-.54.03-1.66.3-1.43,1.23.23.89,1.17,1.1,2.07.99.32-.04.62-.2.94-.23,1.51-.18,3.26,1.16,3.14,2.44-.08.9-.51,1.59-1.44,1.89-.92.29-1.69-.02-2.27-.7-.89-1.06-.31-2,.48-2.97-.51-.06-.88-.1-1.21.18-2.12,1.75-2.17,4.75-4.01,6.67-.2.21-.08.65.27.81.36.16.66-.06.81-.35,1.08-2.03,2.07-1.25,3.09.3.84-2.13,2.06-3.51,4.39-3.28.42.04.76-.14.93-.55.69-1.58,1.38-3.16,2.09-4.79-1.39-.55-2.59.55-3.87-.03,2.22,1.15,2.87-3.27,5.35-1.39.04.03.67-.7,1-1.1.92-1.09,1.73-2.28,3-3.01.43-.25.93-.7,1.39-.19.51.58,0,1.08-.35,1.53-.33.42-.8.86-1.32.63-1.05-.46-1.41.29-1.85.9-.98,1.36-1.82,2.84-2.92,4.09-2.5,2.84-2.38,6.4.56,9.21.48-.71.94-1.4,1.43-2.08.72-1,1.41-2.2,2.77-2.27,2.27-.11,3.31-1.78,4.54-3.22.65-.77,1.1-1.71,1.92-3.01-.32,1.97-1.5,3-1.96,4.69,1.66-.88,2.69-1.93,3.57-3.14.57-.78,1.27-1.59.91-2.63-1.08-3.07-.84-5.97,1-8.6-.99-1.16-2.6-.04-3.57-1.34Zm-213.16,22.28c.79.15.68.74.74,1.23.17,1.27.8,2.34,1.6,3.27.46.54,1.06,1.47,1.79,1.14.67-.3,1.32-1.05,1.35-2,.01-.32.02-.65.08-.97.44-2.18,2.81-5.07,4.33-5.01,4.53.18,7.38-2.82,10.23-5.54,1.63-1.56,3.05-3.32,4.97-4.59,2.03-1.35,4.33-2.34,6.09-4.59-1.17.4-2.17,1.02-3.04.48-1.57-.99-2.97-.34-4.45.08-1.22.34-2.61.49-1.1,2.98-3.12-1.89-4.14-.02-4.9,1.68-.94,2.1-2.74,2.36-4.56,2.53-2.31.22-4.85.88-6.82,2.12-.49.31-1.01.6-1.45.98-1.9,1.65-4.81,2.27-5.38,5.28-.02.12-.28.27-.44.28-1.57.13-2.29,1.37-3.13,2.41-.9,1.12-1.88,2.15-3.01,3.03-2.65,2.08-5.3,4.17-7.98,6.21-1.15.87-2.26,1.8-2.99,3.03-.86,1.46-1.73,2.87-3.07,3.95-.6.48-1.02,1.16-.49,2.1.72-.36.87-1.41,1.68-1.48,2.85-.25,4.71-2.43,7.11-3.55.57-.27,1.26-.46,1.88-.42,1.32.07,2.34-.53,3.43-1.13,1.59-.87,2.62-2.65,4.54-2.88,1.46-.18,2.73-.76,4.02-1.38,2.67-1.3,2.85-2.07.82-4.23-1.34-1.42-2.17-2.97-1.85-5.01Zm20.79,13.57c-1.74.67-3.04,1.29-3.94,2.52-.34.46-.7,1.02-1.17.47-1.31-1.55-2.55-.28-3.84-.08-1.57.24-3.28.86-4.71.49-1.75-.45-2.81.09-4,1.06-2.49,2.04-5.03,3.55-8.49,2.08-1.62-.69-3.75.91-3.39,2.34.48,1.94-.72,2.07-1.98,2.2-.99.1-1.98.25-2.67.99-.99,1.07-1.74,1.99-3.41,2.54-2.16.71-5.03,1.21-6.02,4.02-.02.06-.09.09-.13.14-1.08,1.13-3.14,1.38-3.18,3.48,0,.05-.46.15-.7.13-.39-.04-.52-.33-.45-.7.11-.62-.02-1.18-.52-1.57-.17-.14-.48-.21-.69-.16-.27.05-.46.36-.33.6.75,1.4-.42,1.15-1.06,1.17-1.01.03-2.13-.4-3.02-.09-2.18.75-4.3,4.92-3.99,7.43,1.67-.3,3.04-.79,3.5-2.77.31-1.33,1.61-1.69,2.91-1.89,1.19-.19,2.24.54,3.3.49,5.24-.25,9.04-3.73,12.88-6.6,2.69-2,5.12-3.61,8.51-3.24,1.83.2,3.01-.19,2.91-2.39-.04-.83.26-1.9,1.13-2.09.88-.2,1.26.95,1.91,1.43.14.1.22.33.26.51.28,1.38.96,1,1.77.46,2.91-1.95,5.98-3.61,9.07-5.27,1.49-.8,3.05-1.42,4.59-2.07,2.41-1,3.35-3.29,4.95-5.64Zm-29.59,23.45c-5.41.76-10.27,1.53-14.91,3.27-1.54.57-3.26,1.19-4.33,2.48-1.22,1.47-2.71,1.35-4.03.91-2.18-.72-3.82.22-5.44,1.25-1.09.7-1.6,2.05-1.21,3.23.53,1.61.54,3.17.46,4.79-.03.58-.1,1.23.73,1.34,1.42.18,2.48.99,3.58,1.82.68.52,1.69,1.2,2.34.03,1.24-2.24,3.2-3.44,5.43-4.48,1.17-.55,2.67-1.25,2.87-2.68.39-2.75,1.12-3.53,3.8-3.2.75.09,1.38.06,1.98-.48,2.84-2.53,5.76-4.97,8.72-8.26Zm78.37,13.18c.29-1.55-.48-3.04.13-4.5.27-.64.63-1.43,1.33-.93,1.79,1.29,2.29.03,2.73-1.24.83-2.39,2.5-3.42,4.97-3.57,1.61-.09,3.19-.53,4.8-.73,3.54-.44,7.08-.81,10.62-1.22,2.74-.32,3.69-1.74,3.15-4.36-.37-1.76-1.34-3.2-2.15-4.73-.47-.89-1.1-1.09-2.02-1.15-2.78-.17-5.38.45-7.98,1.34-1.64.56-2,2.09-2.89,3.24-.7.91.34,1.18.51,1.77.07.26.11.46,0,.72-.88,1.95-4.82,4.12-7.06,3.66-1.65-.34-2.92-.05-3.49,1.54-.87,2.4-2.44,3.8-4.96,4.18-.06,0-.1.2-.2.41,2.14,1.19,1.88,3.53,2.53,5.57Zm-26.93-84.41c-.68-.25-1.42-.13-1.99.54-1.99,2.35-4.56,4.02-6.87,6-1.06.91-2.1,2-3.35,2.53-2.51,1.07-4.41,3.04-6.84,4.2-.74.35-1.39.97-1.97,1.56-.73.75-.62,1.84.31,1.98,1.52.22,3.75-.12,4.21-1.29,1.16-2.96,4.02-3.23,6.11-4.53,1.78-1.1,4.66-.33,5.58-3.14.03-.09.21-.14.32-.21,1.89-1.15,4.13-.96,6.16-1.56.44-.13.9.4,1.34.75.72.57,1.81,1.74,2.86.66,1.62-1.67,4.68-2.48,3.76-5.81-.03-.11.07-.25.11-.37.54-1.68.05-2.63-1.69-2.57-1.98.06-4.05-.08-5.87.97-.67.38-1.33.47-2.19.29Zm-74.12,128.3c.14,2.34,1.48,3.56,3.17,2.7,1.22-.62,1.33-.01,1.77.71,1.08,1.8,1.54,1.88,3.12.68,2.1-1.6,3.67-1.57,5.71.25,1.06.95,1.99,1.68,3.29.35.47-.48,1.19-.44,1.85-.24.34.1.94.38.97-.13.07-1.29,1.14-1.8,1.76-2.66.49-.68.8-1.51-.15-2.21-.35-.26-.84-.65-.86-1-.11-1.88-1.19-2.54-2.91-2.68-.73-.06-1.67-.71-.89-1.39,1.72-1.51,1.87-4.31,4.37-5.12.65-.21.44-.89.37-1.36-.06-.41-.12-.99-.63-1.1-.57-.13-.66.5-.96.81-.95.97-2.06,1.83-2.81,2.94-.64.93-1.21,1.37-2.35,1.15-.93-.18-1.92-.23-1.67,1.27.07.44-.13.72-.65.74-.56.01-.62-.25-.54-.72.07-.42-.07-.79-.55-.86-.44-.06-.7.26-.94.58-.83,1.13-.92,2.39-.81,3.75.2,2.55-.89,4.42-3.26,4.75-2.08.29-4.36.45-6.39-1.18Zm27.24-16.2c2.31,2.22,2.11,3.15-.53,4.8-1.12.7-1.69,2.22-3.32,2.23-.06,0-.15.46-.17.71-.04.74,0,1.61.84,1.75,1.19.2,2.58.4,3.41-.78,2.18-3.15,5.26-5.69,6.42-9.53.1-.32.48-.64.81-.78.89-.39,1.34-1.16,1.89-1.88,3.38-4.49,6.03-9.37,7.89-14.72-2.5-.26-4.01,1.32-5.57,2.92-1.42,1.46-2.81,3.09-4.84,3.64-.83.22-.92.34-1.01,1.14-.17,1.47.36,3.45-2.12,3.72-.77.08-.64,1.03-.95,1.56-.98,1.67-.72,3.98-2.74,5.24Zm-11.35-30.83c1.2-.16,1.82.63,2.63.97,1.91.79,3.46.26,3.96-1.66.69-2.65,1.73-5.14,2.77-7.65.2-.49.25-.88-.15-1.2-.43-.34-.69.12-.97.34-3.11,2.53-6.21,5.09-9.33,7.61-.85.69-1.39,1.42-1.32,2.61.09,1.51-.92,2.7-2.19,2.81-1.89.16-2.72,1.33-3.38,2.66-1.43,2.9-3.46,5.27-5.8,7.44-1.34,1.24-2.07,2.96-3.17,4.4-.45.59-.38,1.2.05,1.79.17.24.39.42.62.21,1.74-1.56,3.96-2.55,5.45-4.39.88-1.09,1.29-2.68,2.34-3.49,1.76-1.37,3.36-2.91,5.12-4.26.73-.56.91-1.31,1.29-2.05.93-1.8,1.64-3.95,4.37-3.99-.86-.68-1.82-1.02-2.3-2.15Zm88.62-52.14c3.19.28,5.91-.75,8.5-2.27.7-.41,1.63-.85,1.31-1.66-.51-1.29-.86-2.86-2.07-3.63-1.13-.72-1.44-1.5-1.24-2.71.12-.76-.25-1.48-1.05-1.12-1.72.78-3.7-.73-5.36.77-.36.33-1.12.12-1.61.87-.44.68-1.36.5-1.18-.66.13-.83-.26-.8-.7-.5-2.52,1.7-4.82,3.64-5.77,6.67-.42,1.33.59,2.21,1.97,1.84.5-.13.99-.32,1.48-.46.8-.24,1.81-.35,1.96-1.33.15-.95-1.19-.57-1.47-1.27,2.93.06,5.6,2.94,5.23,5.45Zm-128.65,78.47c.95-.49,1.25-1.27,1.38-2.11.14-.89.62-1.53,1.2-2.16,1.52-1.67,2.96-3.36,2.71-5.89-.08-.8.18-1.68.48-2.45.68-1.74.85-3.55.62-5.34-.15-1.19-.15-2.32.12-3.44.3-1.25-.23-2.02-1.26-2.84-.58,1.44-1.63,2.09-2.77,2.77-2.16,1.29-4.27,2.7-6.24,4.29-.85.69-1.23,1.17-.17,2.04.84.69,1.49,1.62,2.05,2.25-.79-.68-1.78-1.49-2.73-2.34-.76-.68-1.16-.43-1.26.47-.12,1.04.08,2.12,1.27,2.29,2.84.4,2.83,4.02,5.46,4.64.36.09.24.88.02,1.25-1.23,2.08-.04,4.45-.87,6.57Zm175-103.28c.06-1.37-.78-2.62-1.02-4.02-.09-.51-.57-.69-1.06-.34-1.19.85-1.7.27-2.07-.88-.22-.68-.45-.94-1.49-.62-1.83.56-2.44,1.91-3.22,3.29-1.54,2.72-4.37,3.33-6.81,1.5-.33-.25-.6-.83-1-.1-.29.53-.6,1.28.27,1.37,1.54.16,2.48,1.52,3.78,1.8,1.59.35,1.94,1.05,1.91,2.48-.02.91.13,2.33,1.15,2.35,1.22.02,2.89-.88,3.03-1.95.27-2.05,1.35-2.32,2.97-2.53,1-.13,1.95-.65,2.91-1.03.53-.21.85-.59.65-1.32Zm-95.97,56.53c.2.04.41.08.61.12.18,1.25.32,2.5.55,3.74.1.52-.04,1.37.82,1.33.92-.04,1.08-.8,1.02-1.57-.11-1.55-.13-3.11-.4-4.64-.3-1.73-1.63-2.81-3.16-2.36-3.17.91-6.32,2.62-7.44,5.61-1.07,2.86-.36,6.26.37,9.44.81-.34.92-.9,1.23-1.3,1.3-1.71,2.15-4.13,5.17-2.92.73.29,1.18-.32,1.21-1.1.05-1.33-.7-1.67-2.29-.93.04-2.22,2.08-3.4,2.32-5.41Zm-27.08,11.97c-.19.63-.01,1.26.59,1.62.6.36,1.1-.11,1.6-.4.9-.53,1.34-1.36,1.61-2.33.06-.21.12-1.04.6-.47.77.92.97-.03,1.13-.32,1.05-1.89,2.71-2.71,4.76-2.92.76-.08,1.37-.42,1.9-.9,1.88-1.69,3.75-3.39,5.61-5.11.36-.33.97-.68.53-1.26-.35-.46-.88-.03-1.24.13-4.21,1.9-8.83,2.61-12.86,5.21-2.71,1.75-4.77,3.2-4.21,6.73Zm235.96-145.33c-.52.19-.78.54-.79,1.26,0,.49-.31,1.24-.96,1.24-2.19.03-2.92,1.57-3.01,3.25-.06,1.15-.42,1.74-1.25,2.35-1.3.96-2.64,1.89-3.62,3.21-.6.8-.56,1.61.15,2.27.74.69,1.16-.19,1.61-.52,1.27-.93,2.36-1.98,2.62-3.68.15-1.01.45-2.07,1.6-2.48.32-.11.69.04.77.41.29,1.24-.41,2.17-1.21,2.9-1.85,1.7-3.11,3.77-4.2,5.99-.95,1.92-.98,1.91,1.34,1.83-.14-.31-.32-.57-.37-.85-.14-.9-.27-1.84.61-2.48.92-.66,1.4.18,1.97.65.73.61,1.39.43,1.77-.31.31-.61.36-1.36.52-2.04.21-.9.07-2.15,1.09-2.47,1.63-.52,2-1.92,1.85-3.05-.34-2.5,1.13-5.04-.49-7.47Zm-139.57,73.09c.02,1.55-.59,3.19,1.62,2.21.14-.06.46.19.66.35,1,.82,2.21.48,2.87-.14,1.6-1.51,3.78-2.62,3.69-5.49-.04-1.08-.23-1.57-1.07-1.85-1.22-.41-2.51-.6-3.71-1.04-1.81-.66-3.51.28-3.71,2.2-.15,1.41-.26,2.84-.34,3.75Zm101.94,48.44c0-1-.27-1.87.05-2.34.82-1.19,1.36-1.76-.2-3.13-1-.89-1.24-1.13-2.21-.42-.35.26-.83.36-1.26.48-4.34,1.17-8.75,1.97-13.21,2.5-.77.09-1.53.25-2.3.34-.51.06-.63.26-.55.76.38,2.18,1.57,2.76,3.33,1.56.54-.37,1.12-.62,1.73-.84,4.95-1.75,9.77-1.57,14.61,1.09Zm-111.27-61.53c-.18-1.57-.22-3.17-2.34-3.52-1-.17-1.95-.66-2.93-.98-2.02-.67-2.95,0-2.93,2.06,0,.71-.03,1.42.02,2.13.16,2.29.96,3.19,3.09,3.55,1.64.28,5.08-1.91,5.1-3.23Zm1.26-.11c1.6-1.33,2.55-1.4,3.55.7.77,1.62,2.81.74,4.29.43,1.3-.27.6-1.38.62-2.1.04-1.81-.21-3.64-.08-5.44.11-1.56-1.02-1.74-1.93-1.89-.97-.16-.96,1.05-1.41,1.61-2.26,2.83-2.24,2.86.26,5.17.56.52.85,1.13.81,1.89-.02.31-.24.5-.52.44-.78-.17-.92-.82-1.03-1.48-.02-.12-.11-.23-.18-.34-.59-.86-3.32-1.81-4.07-1.32-.8.52-.48,1.32-.3,2.32Zm-23.65,75.82c-1.24.6-2.17,1.68-3.46,1.73-2.75.11-5.09,1.72-7.77,2.01-1.36.14-1.76,1.16-2.23,2.13-.17.35-.14.86.45.75,2.74-.48,5.38.45,8.09.48.73,0,1.3-.2,1.47-.95.36-1.58,1.51-2.64,2.44-3.84.49-.64,1.15-1.2,1.01-2.31Zm158.88-71.22c2.01-.19,3.66-.34,5.31-.53.29-.03.73-.22.8-.44.64-2.09,1.16-4.29.96-6.41-.06-.62-.47-1.19-.03-1.9.31-.51.51-1.15-.1-1.55-.56-.37-.94.19-1.31.52-3,2.72-3.78,6.61-5.64,10.31Zm-53.65,47.21c.89.14,1.73.05,2.3-1.43.53-1.38,2.34-1.98,3-3.46.17-.39.65-.72.12-1.15-.36-.29-4.69,0-4.97.37-.65.89-1.57,1.35-2.57,1.65-1.11.34-1.95.94-1.78,2.17.18,1.3,1.23,1.71,2.42,1.79.39.02.78.04,1.48.07Zm73.09-86.68c4.97.16,9.08-2.04,13.32-3.99-.7-.87-1.51-1.2-2.48-.93-2.23.62-4.55.62-6.74.31-1.9-.26-2.51.56-3.2,1.98.39,0,.64,0,.9,0,.57.03,1.39-.13,1.48.56.1.78-.66.96-1.35,1.02-.71.06-1.41.18-1.93,1.04Zm-211.37,90.63c1.01.07,3.94-1.91,4.45-2.69.5-.77-1.42-.89-.27-1.81.57-.45.36-1.5-.32-2.07-.69-.58-1.45-.15-1.97.25-1.79,1.39-3.63,2.74-4.96,4.62-.31.44-1,.87-.61,1.49.43.7,1.13.36,1.76.19.63-.18,1.28-.21,1.92.02Zm65.82-58.78c0,.77-.06,1.55.02,2.32.06.58-.48,1.44.37,1.68.7.2,1.34-.37,1.8-.92,1.29-1.53,2.54-3.08,4.38-4.02.91-.47.71-.93-.12-1.31-1.89-.85-4.05-.83-5.88-1.92-.72-.43-.78.4-.77.89.03,1.09.13,2.19.2,3.28Zm131.79,8.6c.08-.39.32-.84-.42-.98-2.53-.48-5.5,1.07-6.31,3.35-.26.72-.65,1.79.27,2.02,1.24.31,2.25,2.2,3.81.73,1.48-1.39,2.85-2.84,2.64-5.13Zm-59.48,47.25c-.76,0-1.02,0-1.28,0-4.17.14-4.36.42-2.97,4.27.25.7.85,1.21,1.42,1.12,1.58-.25,3.41-.13,4.23-2.05.45-1.04,1.67-2.17,1.19-3.08-.49-.93-2.02-.23-2.59-.25Zm-132.5,41.32c3.25-1.45,6.38-2.45,9.79-1.54.47.12.86-.22,1.07-.67.29-.61-.06-1.09-.52-1.29-1.77-.75-3.07-3.25-5.55-1.59-.1.07-.41-.02-.5-.13-.97-1.18-1.31.24-1.83.52-.5.26-.6.95-.22,1.54.18.28,1.15.21.46.88-.32.32-.8.47-1.19,0-.54-.65-.71-.16-.87.28-.21.58-.38,1.17-.65,2Zm-107.28,35.66c-.36-.74-1.8-1.11-.78-2.07.96-.9,1.5-.26,1.98.77.46.97,1.22.19,1.53-.18.85-1,1.77-1.83,2.96-2.39.94-.44.63-1.06-.05-1.41-1.15-.58-2.28-1.4-3.35.36-.83,1.37-3.43,1.18-3.67-.21-.35-2.06-1.88-1.14-2.68-1.1-.99.05-1.52,1.11-1.24,2.58.74-1.36,1.54-2.69,2.9-1.72,1.15.82.75,1.98-.39,2.88-.55.43-.27.89.45.96.71.07,1.09.53.26.77-1.08.31-.77,1.14-.58,1.47.34.58,1.01.27,1.53-.03.34-.19.66-.4,1.12-.69Zm58.97-7.92c-.18-.37-1.42-.12-1.1-1.03.27-.76,1.02-.32,1.52-.14.63.23.71-.41,1.06-.55,1.21-.47,1.79-1.99,2.91-2.18,2.26-.39,3.8-2.1,5.88-2.76.56-.18.69-.88.37-1.59-5.24,2.26-9.94,5.83-15.79,6.6-.23.03-.48.22-.64.41-.29.35-.27.86.14.96,1.87.47,3.64,2.4,5.64.29Zm-33.91.79c-.19-.9-.35-1.66-.52-2.41-.16-.72-.41-1.17-1.01-.26-.03.05-.09.11-.15.12-3.04.43-4.58,2.06-4.25,5.24.05.49-.65,1.02.21,1.46.64.33,1.09.24,1.76-.03.91-.37,1.26-1.51,2.11-1.59,1.84-.17,1.34-1.71,1.86-2.53Zm75.5-51.41c-.13,2.33.54,4.33.64,6.42,1.72-.42,2.85-1.07,3.08-2.9.11-.94.9-1.51,2.05-1.72,1.2-.22,2.56.32,3.62-.53-1.24-2.38-2.73-2.29-4.77-1-1.29.81-2.97.7-4.62-.26Zm178.89-60.13c2.91-.69,5.9-.4,8.75-1.11,1.16-.29,1.83-1.14,2.38-2.14.27-.49.42-1.02.13-1.47-.34-.53-.93-.24-1.43-.22-4.05.1-6.33,3.67-9.83,4.94Zm-233.79,105.07c.9.11,1.82-.21,2.11-.76.97-1.87,2.74-2.67,4.37-3.64,2.09-1.25,3.48-3.2,5.1-4.92.28-.3.52-.68.33-1.04-.34-.63-.85-.12-1.16.04-2.99,1.58-5.47,3.83-7.91,6.12-.09.09-.21.22-.2.32.13,1.95-1.18,2.94-2.64,3.88Zm82.77-43.06c1.67-.58,3.28-.83,4.98-.79,1.47.03,1.79-.91,1.11-2.08-.77-1.34-1.73-2.57-2.27-4.03-.26-.7-.83-.6-1.29-.44-.77.27-1.83,0-2.28.84-.34.64.41,1.15.65,1.73.3.74.58.07.83-.03.32-.13.61-.23.89.04.4.37.12.75-.07,1.04-.83,1.26-1.71,2.49-2.57,3.73Zm164.88-50.81c1.2-.51,2.47.08,2.82-1.13.3-1.01.97-1.18,1.74-1.52.81-.36,2.27-.86,1.69-1.89-.75-1.34-.93-2.98-2.11-4.26-1.75,2.7-3.12,5.43-4.15,8.81Zm-8.14-15.31c-5.52.33-10.11,2.3-14.81,3.86-.36.12-.74.27-1.04.5-.39.3-1,.66-.66,1.23.3.5.94.29,1.43.13.3-.1.54-.35.84-.46,2.03-.77,4.1-2.19,6.11-2.11,3.21.14,5.3-1.57,8.13-3.14Zm-142.15,20.98c.72.02,4.08-3.05,3.91-3.62-.38-1.27-1.73-.71-2.58-1.13-.57-.28-1.21-.39-1.8-.64-.28-.11-.53-.48-.8-.09-.66.94-1.53,1.92-1.22,3.13.32,1.25,1.43,1.91,2.5,2.34Zm176.33-60.5c1.55-.51,3.14.61,4.7-.29,1.96-1.13,3.77-2.46,5.65-3.71,1.01-.67-.87-1.3.23-1.65-.19-.43-.58-.44-.97-.47-1.69-.14-1.7,1.66-2.62,2.43-.72.6-1.19,1.47-2.25,1.42-1.99-.11-3.33,1.09-4.75,2.27Zm-29.97-29.38c-.18-1.27-.5-2.62-2.03-2.56-1.2.05-2.7.35-3.07,1.8-.28,1.07,2.21,3.68,3.33,3.55,1.62-.18,1.53-1.62,1.77-2.79Zm-41.52,120.52c1.48-.15,2.45-.25,3.41-.34.46-.04,1-.11,1.1-.61.14-.68-.45-.79-.96-.96-1.74-.6-3.35-1.36-4.16-3.19-.18-.41-.58-.79-1.08-.66-.73.2-.44.83-.38,1.3.14,1.02.26,2.05.53,3.04.27.98,1.04,1.42,1.54,1.42Zm-71.97-47c1.42-2.17,3.49-1.79,5.47-1.67,1.69.11,3.23-.15,4.76-1.67-1.78-.43-3.2-.85-4.76-.73-1.43.11-2.64.76-3.94,1.23-1.57.57-1.85,1.26-1.54,2.83Zm-45.03-3.99c-.15.57-.68.58-.85.87-.42.71-.73,1.56-.55,2.36.15.64.97.54,1.5.63,1.04.18,1.23-.79,1.51-1.45.38-.88.75-1.81.86-2.75.1-.95-.15-2.05-1.32-2.21-1.23-.17-2.76.09-3.21,1.19-.36.88,1.31.58,1.85,1.17.04.05.09.09.2.19Zm4.14-1.5c-1.5,1.57-1.47,3.68-2.48,5.29-.52.83-.09,1.5.49,2.05.95.88,1.9.24,2.86-.07,1.01-.32.56-1.04.45-1.58-.38-1.83-.84-3.64-1.32-5.69Zm11.36-9.81c-2.71.56-4.88,1.44-7.22,1.56-.45.02-.91.08-1.33.23-.96.35-.92,1.33-1.14,2.1-.14.49.32.92.65,1.09.78.38,1.07-.48,1.55-.84.62-.46,1.16-1.03,1.75-1.53,1.77-1.47,2.18-1.4,3.47.5.29.43.59.99,1.18.82.73-.22.64-1,.47-1.48-.3-.83-.02-1.48.61-2.44Zm89.74-22.37c.15,1.91.59,3.19,1.19,4.39.26.53.89,1.07,1.23.14.45-1.27,1.35-1.97,2.39-2.65.4-.26.89-.57.56-1.25-.26-.52-.6-.77-1.19-.79-1.03-.04-2.08-.03-3.08-.24-.96-.21-1.14.13-1.11.4Zm23.49,80.89c1.63.28,4.34-.61,5.38-2.14.88-1.31-.64-2.64-.39-4.08-.16-.06-.31-.12-.47-.17-1.48,2.09-2.95,4.17-4.52,6.39Zm-176.43,51.2c1.89-.1,3.22-1.59,4.92-1.71,1.29-.1,1.79-.81,2.3-1.71.42-.74.57-1.54-.31-2-.79-.42-1.53-.1-1.93.72-.7,1.44-1.83,2.31-3.39,2.58-1.15.2-1.67.81-1.59,2.12Zm62.79-77.43c2.18.72,4.09,1.19,6.14.83,0-.89-.75-1.59-.44-2.48.54-1.55-.37-1.41-1.4-1.22-1.71.33-2.66,1.76-4.31,2.86Zm170.03-60.71c1.28-.72,2.47-1.37,3.64-2.05.27-.16.59-.4.37-.76-.1-.16-.45-.27-.65-.23-2.78.55-5.55,1.12-8.31,1.71-.83.18-.97.8-.68,1.5.28.68.73.73,1.39.35,1.36-.79,2.98-1.12,4.02-2.43.6.64-.14,1.21.23,1.91Zm-187.89,116.19c-2.15-.6-4.17-.96-6.25-.88-.49.02-1.32.11-.94.78.45.8.65,2.24,2.28,1.64.51-.19,1.19-.18,1.7,0,1.53.54,2.43-.09,3.21-1.53Zm177.83-80.07c-1.41.08-2.24.09-3.07.18-1.66.19-2.75,1.69-2.44,3.33.11.56.49,1.05,1.06.82,1.02-.42,2.61-.04,2.7-1.96.03-.75.67-1.47,1.76-2.37Zm-187.01,57.99c-.84-.07-.94.42-.98.98-.12,1.63-.95,2.94-1.96,4.13-1.16,1.36-2.66,2.27-4.37,2.75-.88.25-1.28.87-.96,1.53.39.8,1.06.11,1.44-.2,2.03-1.59,3.96-3.31,6.03-4.84,1.51-1.12.15-2.87,1.1-4.06,0-.01-.24-.22-.3-.28Zm2.15-52.01c2.16.31,4.51.02,6.42,1.54.43.34.95-.17,1.22-.66.38-.69.73-1.47.51-2.19-.18-.61-.92-.44-1.53-.4-2.05.13-3.89,1.75-6.1.88-.16-.06-.53.29-.53.83Zm-40.08,82.2c-2.43.23-2.77,1.9-3,3.71-.09.69.16.88.79,1,1.55.3,2.75-.06,3.55-1.68-2.38-.2-1.24-1.79-1.34-3.03Zm188.35-15.57c-2.77,2.04-4.28,4.75-4.06,7.16.9-.62,1.81-1.24,2.7-1.87.36-.26,1.06-.56.89-.92-.75-1.53.16-2.86.47-4.37Zm-23.81-18.47c-.89-1.36-.53-2.91-.88-4.32-.14-.54-.51-1.61-1.17-.66-.82,1.17-1.64,2.68-1.57,3.99.05.77,1.97,1.04,3.18,1.13.06,0,.12-.04.43-.14Zm31.36-87.08c.71-.96,1.3-2.02,2.39-2.5,1.26-.57,1.47-1.69,1.74-2.79.12-.47.29-1.05-.32-1.37-.65-.34-.91.23-1.24.59-1.58,1.71-2.08,3.89-2.57,6.07Zm-126.21.49c-1.08-.02-1.97.25-2.41,1.27-.31.72.18,1.21.66,1.65.99.91,1.67-.03,2.32-.5.69-.49,1.99-.9,1.77-1.74-.23-.9-1.61-.24-2.34-.68Zm-114.61,191.81c-.72.11-1.2.2-.7.97.72,1.14,1.72,1.91,2.9,2.5.45.23.92,1.05,1.43.24.39-.62.74-1.4-.08-2.09-1.08-.91-2.5-.98-3.54-1.62Zm106.17-134c-.81-.57-1.5-1.04-2.17-1.52-.33-.24-.61-.49-.94,0-.48.7-.49,3.76,0,4.56,1-.98,2.01-1.95,3.12-3.03Zm-83.92,82.34c-3-.37-4.07,2.81-6.61,3.02-.45.04-.36.87-.07,1.48,2.32-1.26,4.76-2.28,6.68-4.5Zm82.04-89.97c-.51-.74-.93-1.89-1.85-1.91-.8-.02-2.04,1.21-1.79,1.67.48.9,1.57,1.66,2.57,2,.53.18.66-1.07,1.06-1.76Zm-142.71,137.25c.48-.02,2.47-2.2,2.3-2.61-.21-.51-.48-1.27-1.16-1.11-1.27.31-1.98,1.34-2.32,2.52-.25.88.57,1,1.18,1.2Zm150.88-160.55c0-.84.06-1.87-.61-2.01-.93-.19-.81.89-.99,1.52-.04.12-.04.25-.07.38-.19.97-.79,1.93-.29,2.92.16.33.71.23,1.05.02,1.16-.72.37-2.05.91-2.83Zm-72.47,107.36c-1.65-.51-2.51.24-3.39.83-.51.34-1.23.69-1.09,1.44.1.53.78.64,1.24.8.76.27,1.19-.27,1.57-.82.48-.71.57-1.66,1.67-2.25Zm-50.24,22.9c-2.42-1.14-3.22,1.11-4.74,1.36-.22.04-.35,1.48.17,1.92.5.43,1-.28,1.43-.64.98-.83,1.96-1.66,3.13-2.64Zm110.34-80.97c.86-.75,1.54-1.3,2.18-1.9.45-.42.83-1.1.28-1.49-.62-.44-.6-1.66-1.52-1.47-.68.14-.67,1-.71,1.65-.06.99-.14,1.98-.23,3.22Zm132.25,22.7c.53.07,1.66.26,1.42-.36-.38-.99-.53-2.54-2.07-2.67-.79-.07-1.05.4-1.02,1.31.04,1.19.15,2,1.66,1.73Zm-97.37-87.14c-.76-2.27-1.94-4.28-3.93-6.47.36,1.59-.53,2.94.81,3.63,1.33.68,2.21,1.71,3.12,2.84Zm50.62,79.14c-.02-.94.32-2.32-.76-2.31-.92,0-1.29,1.57-1.43,2.42-.13.85,1.27,1.5,1.89,1.47,1.16-.05.01-1.1.3-1.58Zm-124.18-8.68c1.45-1.88,3.02-3.01,5.02-4.41-4.24.65-4.4.79-5.02,4.41Zm102.24-32.4c.59-.06,1.47-.04,1.34-1.35-.07-.69-.17-1.14-.97-1.08-.88.06-1.74.21-1.8,1.33-.04.75.3,1.25,1.42,1.1Zm46.89-60.87c-.61.93-1.11,1.66-1.58,2.41-.5.78.13.88.64.93,1.74.16,2-.59.94-3.34Zm42,77.84c-.65.86-2.19,1-1.92,2.33.09.44.99,1.06,1.61.72,1.32-.73.22-1.98.31-3.05Zm-220.39,73.73c1.74-.21,3.02-.51,4.05-1.45.37-.34.63-.9.04-1.31-.35-.25-1.04-.55-1.16-.02-.34,1.44-1.69,1.76-2.93,2.78Zm178.76-66.32c-1.12.27-1.56,1.28-1.31,1.74.62,1.16.05,1.93-.37,2.85-.18.4-.28.91.15,1.23.27.21.93.45.81-.14-.4-1.94.46-3.7.72-5.68Zm29-78.44c1.29-1.14,1.39-3.36,3.63-3.55.32-.03.36-.52.17-.82-.26-.42-.63-.33-1.02-.15-1.95.92-2.07,2.89-2.78,4.52Zm-81.54,80.72c-.61.06-1.35-.02-1.27.97.05.66.14,1.24,1.08,1.19.87-.05,1.27-.4,1.35-1.25.08-.92-.63-.77-1.16-.91Zm-179.63,46.03c0,.82.03,1.38,0,1.93-.03.53-.13,1.05-.21,1.64,2.65-1.16,2.69-1.5.22-3.57Zm7.85,54.4c-.49-.56.06-1.77-.91-2.09-.51-.16-.97.53-.89,1.19.1.82.18,1.71,1.27,1.83.58.06.49-.43.53-.93Zm115.16-122.05c-.11-1.94-.45-2.34-2.26-2.68.24,1.35,1.1,2.09,2.26,2.68Zm-111.67,104.2c-1.09.48-1.76,1.24-2.46,1.95-.15.15-.26.52-.18.66.17.29.58.39.84.18.84-.69,1.87-1.29,1.8-2.79Zm-7.74-36.91c-1.04-.12-2-.24-2.96-.36.9.96,1.63,3.28,2.96.36Zm-16.83,25.05c-1.09,1.08-2.15,1.61-2.23,2.96,1.91.08,2.1-1.18,2.23-2.96Zm53.22-61.33c.67-1.13,1.58-2.01,1.53-3.33-.62,1.01-2.67,1.36-1.53,3.33Z"/><path class="cls-1" d="m278.59,311.05c.07-2.35,1.41-5.19,4.17-7.28,5.73-4.32,10.63-4.2,16.85-.78,4.55,2.5,5.67,9.73,2.52,13.85-.72.94-2.37,1.85-.56,3.32.25.2.05.76-.26,1.04-.36.33-.42.41.12.73,2.59,1.59,2.81,4.29.45,6.44-.69.63-.84.97-.51,1.84,1.18,3.09.73,4.56-1.87,6.84-1.64,1.43-3.68,1.6-5.77.47-2.69-1.45-4.05-3.83-3.63-6.5.2-1.27.55-2.52.86-3.77.16-.64.55-1.18,1.23-.61,1.88,1.56,2.73-.23,3.22-1.28.84-1.78,1.53-3.44,3.75-3.73.44-.06.48-.3.25-.67-.2-.31-.26-.81-.8-.46-2.09,1.37-4.35,2.28-6.86,2.53-.49.05-.49.53-.7.83-.3.42-.94.62-1.15.21-.84-1.62-2.53-1.34-3.84-1.83-4.6-1.7-7.42-5.43-7.47-11.19Z"/><path class="cls-1" d="m282.45,284.89c.19-.85.11-1.43-.47-2.05-2.34-2.49-2.71-4.9-1.32-7.59,1.32-2.55,4.42-4.17,7.29-3.87,3.03.31,6.42,2.43,6.28,6.17-.04.99.4,1.29,1.33.87.52-.23,1.11-.23,1.32.37.27.78-.45,1.08-.97,1.17-1.96.37-1.53,1.4-.67,2.42,1.08,1.27.28,1.76-.79,1.96-1.23.22-1.85.75-2.25,1.99-.68,2.09-2.55,2.91-4.51,3.61-1.83.66-2.94.06-3.97-1.43-.81-1.16-1.48-2.27-1.26-3.62Z"/><path class="cls-1" d="m314.26,297.72c-3.63.01-6.16-1.94-6.72-5.17-.63-3.65.86-6.02,4.64-7.34.18-.06.41-.08.54-.21,2.76-2.64,5.13-.45,7.5.7,1.43.69,2.09,2.04,2.13,3.68.1,4.26-3.82,8.33-8.08,8.34Z"/><path class="cls-1" d="m280.51,365.41c-1.49-.05-2.61-.72-3.26-2.07-.62-1.31-.45-2.56.58-3.57.76-.75.93-1.23.14-2.19-1.6-1.95-1.24-4.23.71-5.8.66-.53,1.41-.92,1.06-1.99-.1-.32-.1-.85.43-.9.45-.05.72.35.78.72.15.9.64,1.11,1.49,1.09,2-.05,2.96,1.17,3.6,2.92.68,1.86.19,3.39-1.2,4.53-.98.81-1.06,1.42-.64,2.56.93,2.49-.99,4.85-3.7,4.71Z"/><path class="cls-1" d="m450.51,164.39c-.6-.66-2.1-.49-1.68-1.62.33-.9,1.52-.58,2.29-.35.92.28,2.39-.17,2.46,1.56,0,.09.68.15,1.04.23.67.14,1.62.04,1.7.93.08.86-.84,1.02-1.48,1.31-.24.11-.46.27-.7.33-1.59.4-2.13,1.2-1.23,2.75.62,1.07-.02,1.74-.99,2.08-5,1.76-10.07,3.16-15.46,2.72-.54-.05-1.31.13-1.48-.61-.2-.82.58-1.1,1.13-1.37,1.7-.82,3.52-1.27,5.38-1.59.67-.12,1.47.13,1.23-1.23-.14-.82,1.18-.99,1.95-1.28,1.37-.54,3.18-.31,3.47-2.56.1-.8,1.42-.97,2.39-1.3Z"/><path class="cls-1" d="m277.71,391.1c2.13-.02,3.82.78,4.67,2.81.77,1.84.38,3.59-.93,5.04-1.46,1.62-3.34,1.86-5.34,1.24-.96-.29-1.76-.78-2.93-.49-1.15.29-1.53-.81-.91-1.6.62-.78.54-1.51.56-2.33.04-2.69,2.16-4.7,4.89-4.67Z"/><path class="cls-1" d="m315.29,121.28c-1.14.77-2.15,1.95-3.71.54-.7-.63-1.1.31-1.43.81-1.33,1.99-2.62,4.02-4.3,5.75-.39.41-.82,1.05-1.45.71-.76-.42-.31-1.12-.12-1.72.83-2.65,2.36-4.87,4.15-6.95,1.08-1.25,2.48-2.28,2.61-4.02.63-.08.75.27.92.52,1.03,1.48,2.07,1.25,2.74-.2.9-1.97,2.92-1.17,4.28-1.95.21-.12.52.03.62.32.16.45-.12.87-.46.95-2.77.72-2.85,3.38-3.91,5.32l.06-.06Z"/><path class="cls-1" d="m352.03,76.44c.31-1.21-.19-1.58-1.26-1.74-1.76-.27-2.1-.98-1.36-2.54.68-1.45,1.81-2.52,3.11-3.4.69-.47,1.52-.59,2.21-.13.94.62,1.75.73,2.63-.05.3-.27.7-.39,1.08-.14.37.25.43.63.3,1.03-1.08,3.31-3.18,6-5.82,8.09-1.38,1.09-.54-.79-.89-1.11Z"/><path class="cls-1" d="m49.16,167.51c.01,2.24-1.49,3.87-3.62,3.95-2.15.08-4.08-1.89-4.15-4.24-.07-2.24,1.62-4.05,3.78-4.06,2.17-.01,3.98,1.96,3.99,4.35Z"/><path class="cls-1" d="m327.89,104.32c-.21.92.19,1.61.43,2.35.22.67.48,1.34.61,2.04.13.63.19,1.43-.63,1.6-.84.18-1.05-.52-1.15-1.22-.08-.55.07-1.28-.59-1.53-.78-.3-1.13.46-1.56.88-1.72,1.69-3.63,3.12-5.69,4.36-.5.3-1.1,1.06-1.65.38-.4-.48.23-1.05.57-1.5,1.53-2.02,3.27-3.84,5.24-5.45.63-.51,1.26-1.05,1.16-1.89-.22-1.82,1.39-2.21,2.32-2.24,1.25-.04.9,1.41.97,2.23Z"/><path class="cls-1" d="m269.3,409.38c1.95-.43,2.88,1.48,4.34,2.38.18.11.11.69-.11.57-1.2-.61-.68.46-.77.79-.68,2.43-3.34,3.45-5.37,1.97-1.23-.9-1.85-2.31-2.5-3.59-.58-1.15.51-1.74,1.52-1.93.88-.17,1.8-.13,2.89-.2Z"/><path class="cls-1" d="m177.37,348.34c0,1.71-1,2.64-2.85,2.67-2.08.03-3.76-1.45-3.79-3.34-.03-1.76,1.25-3.04,3.05-3.03,2.57.01,3.59,1.07,3.58,3.7Z"/><path class="cls-1" d="m399.71,217.99c1.22.11,2.46.09,3.62.55,1.33.52,1.47,1.39.43,2.31-1.62,1.43-6.23,2.06-8.13,1.13-1.39-.69-1.53-1.72-.28-2.68,1.27-.98,2.77-1.32,4.36-1.31Z"/><path class="cls-1" d="m431.66,187.52c-.54-.06-1.21.17-1.42-.44-.26-.74.47-1.02.93-1.27,2.69-1.49,5.66-2.2,8.63-2.91.82-.19,1.65-.33,2.46-.54.66-.17,1.37-.36,1.66.44.27.75-.35,1.22-.93,1.5-.93.44-1.9.82-2.88,1.15-2.77.92-5.55,1.82-8.43,2.08Z"/><path class="cls-1" d="m400.36,207.69c2.96.17,5.93.33,8.89.51.31.02.63.13.93.24.46.17,1.16.22.99.93-.14.59-.8.65-1.3.58-2.95-.42-5.92.29-8.87-.25-1.14-.21-2.27-.22-3.28.67-.61.53-1.51.5-2.15-.09-.56-.51-.5-1.4-.39-1.98.14-.74,1.07-.52,1.69-.54,1.16-.04,2.32-.01,3.49-.01,0-.02,0-.04,0-.05Z"/><path class="cls-1" d="m168.72,359.24c-.02,1.63-1.24,2.78-2.89,2.73-1.7-.05-3.32-1.47-3.32-2.91,0-1.86,1.14-3.23,2.65-3.2,2,.04,3.58,1.54,3.55,3.38Z"/><path class="cls-1" d="m291.03,123.6c-1.55-.05-2.31-1.23-1.71-2.67.64-1.54,3.64-3.23,5.29-2.99.96.14,1.58.58,1.41,1.65-.3,1.8-3.15,4.07-4.99,4.01Z"/><path class="cls-1" d="m424.06,230.19c-1.43-.66-3.03-.32-4.49-1.5,1.86-.46,3.47-.26,4.71.47,1.16.68,2.07.66,3.17.26.77-.28,1.65-.4,2,.52.3.8-.45,1.28-1.05,1.65-1.6.99-3.25,1.89-5.18,2.03-.77.06-1.7.18-2.05-.68-.4-.98.62-1.29,1.18-1.74.49-.38,1.07-.64,1.71-1.01Z"/><path class="cls-1" d="m467.98,152.42c-.93-.04-1.89.05-2.16-.98-.26-1,.54-1.54,1.26-1.95,2.04-1.15,4.32-1.1,6.57-1.16.41-.01.75.2.9.6.13.36-.09.66-.36.82-1.99,1.13-3.83,2.64-6.21,2.68Z"/><path class="cls-1" d="m36.07,260.47c1.89,0,3.44,1.23,3.36,2.78-.07,1.44-1.06,2.01-2.36,2.05-1.83.06-3.7-1.4-3.64-2.78.05-1.16,1.19-2.04,2.64-2.05Z"/><path class="cls-1" d="m443.03,240.1c.9.07,1.8.11,2.7.23.39.05.73.36.77.77.04.42-.27.74-.65.87-2.48.84-5.04,1.12-7.64.75-.51-.07-1.02-.38-1.03-.98,0-.52.46-.73.89-.9,1.6-.62,3.26-.8,4.96-.73Z"/><path class="cls-1" d="m6.02,299.42c-.14,1.5-.99,2.34-2.49,2.42-1.52.09-2.88-1.19-2.83-2.55.04-1.22,1.47-2.46,2.84-2.36,1.48.11,2.32.97,2.47,2.48Z"/><path class="cls-1" d="m385.8,151.34c1.73.06,3.1-.02,4.41.39.5.16,1.06.37,1,1-.06.59-.6.86-1.14.84-2.64-.07-5.28-.16-7.91-.28-.45-.02-.93-.21-.93-.78,0-.56.47-.77.92-.82,1.34-.16,2.69-.26,3.66-.35Z"/><path class="cls-1" d="m477.99,247.45c-2.7-.19-5.39-.52-8-1.27-.45-.13-1.19-.2-1.05-.89.1-.47.73-.41,1.18-.46,3.24-.37,6.22.8,9.28,1.51.34.08.64.33.62.65-.03.52-.5.5-.88.5-.39,0-.77-.03-1.16-.05Z"/><path class="cls-1" d="m160.43,125.62c-1.53,0-2.23-.97-2.38-2.31-.12-1.14-1.01-2.76.41-3.33,1.33-.53,1.97,1.15,2.68,2.06.61.79,1.26,1.73.77,2.84-.25.57-.86.75-1.49.74Z"/><path class="cls-1" d="m332.09,133.4c-.46-.87.22-2.36-1.42-2.58,0,0,.02.02.02.02-.07-.51-.22-1.02-.18-1.52.12-1.33.81-2.24,2.23-2.08,1.35.15,1.86,1.22,1.57,2.41-.35,1.43-.03,3.38-2.25,3.72,0,0,.03.03.03.03Z"/><path class="cls-1" d="m32.82,339.55c-.13,1.29-.63,2.2-1.92,2.06-1.35-.14-2.28-1.03-2.33-2.41-.05-1.19.77-1.95,1.97-1.9,1.42.06,2.16.96,2.28,2.24Z"/><path class="cls-1" d="m331.63,112.53c.63-1.97,2.1-3.21,3.46-4.55,1.01-.99,2-2.01,3.02-3,.28-.27.63-.49,1.04-.22.35.24.27.59.04.83-2.35,2.48-4.54,5.15-7.55,6.93Z"/><path class="cls-1" d="m464.7,112.41c-.38-.08-.94.18-1.17-.33-.22-.49.21-.87.5-1.17,1.28-1.36,2.99-2,4.65-2.72.35-.15.77-.11,1.07.23.19.22.18.43.06.7-.35.8-4.12,3.28-5.11,3.3Z"/><path class="cls-1" d="m430.52,325.92c2.45.52,4.53,1.88,6.73,2.98.31.15.5.44.38.8-.13.39-.5.41-.8.33-2.45-.66-4.8-1.54-6.9-3.01-.25-.18-.53-.45-.4-.81.18-.48.6-.39.99-.3Z"/><path class="cls-1" d="m399.1,97.87c0,1.25-3.27,5.33-4.13,5.54-.69.16-.95-.12-.9-.8.07-1.03,2.98-4.68,4.01-5.01.6-.19,1.01-.08,1.02.27Z"/><path class="cls-1" d="m448.98,71.32c-.09.13-.17.32-.31.43-1.57,1.23-3.16,2.44-5.05,3.15-.48.18-1.21.47-1.53-.23-.24-.55.28-.93.68-1.25,1.58-1.26,3.48-1.91,5.3-2.69.43-.18.92-.16.9.6Z"/><path class="cls-1" d="m316.84,76.57c-.03,1.69.05,2.85-.41,3.96-.12.3-.26.63-.63.64-.4,0-.51-.36-.57-.66-.45-2.05-.2-4.09.24-6.11.07-.32.33-.64.69-.48.25.11.52.43.56.69.11.82.12,1.66.14,1.97Z"/><path class="cls-1" d="m462.33,146.63c-.58-.02-1.3.08-1.47-.61-.16-.65.46-.99.94-1.32.05-.04.12-.06.17-.08,1.57-.69,3.21-.9,4.89-.55.07.01.16.43.1.48-1.37,1.07-2.78,2.06-4.63,2.08Z"/><path class="cls-1" d="m235.45,102.68c-.07-.76.18-1.96.43-3.16.08-.37.24-.79.73-.75.46.04.64.44.67.83.13,1.95-.1,3.87-.54,5.76-.08.36-.31.81-.78.7-.41-.1-.51-.54-.51-.95,0-.65,0-1.29,0-2.42Z"/><path class="cls-1" d="m362.71,97.5c.93-1.69,2.46-2.76,3.83-3.99,1-.91,2.01-1.81,3.03-2.69.24-.21.55-.37.87-.18.29.17.23.5.08.67-2.26,2.49-4.75,4.7-7.81,6.19Z"/><path class="cls-1" d="m390.49,204.08c1.02.23,1.56,1.11,1.47,1.93-.12,1.1-1.1,1.69-2.23,1.69-.9,0-1.82-.38-1.62-1.41.23-1.15,1.03-2.03,2.38-2.2Z"/><path class="cls-1" d="m458.45,167.99c1.92-1.74,4.33-2.09,6.69-2.58.32-.07.69.07.78.41.04.15-.18.49-.35.56-2.27.93-4.51,2.03-7.12,1.61Z"/><path class="cls-1" d="m474.51,197.15c2.84-.45,5.63-.3,8.42.18.33.06.65.25.63.61-.02.42-.43.47-.73.44-2.79-.27-5.65-.04-8.33-1.23Z"/><path class="cls-1" d="m45.44,324.24c-.3.96-1.08,1.04-1.8.63-.83-.45-1.59-.71-2.55-.55-.7.12-1.29-.33-1.32-1.09-.04-.83.65-.84,1.24-.8,1.03.07,2.06.14,3.07.31.75.13,1.26.62,1.37,1.49Z"/><path class="cls-1" d="m232.3,99.53c.66-2,1.08-4.11,2.04-5.96.82-1.58.14-3.48,1.4-4.87.29-.32.35-.84,1.14-.79-.82,4.19-2.62,7.97-4.58,11.61Z"/><path class="cls-1" d="m283.83,142.27s-.03.48-.06.93c-.02.32-.04.69-.44.74-.34.04-.62-.17-.73-.51-.47-1.46-1.2-2.84-1.19-4.43,0-.45-.05-1.01.48-1.15.5-.13.75.39,1.03.73.8.95.92,2.09.9,3.68Z"/><path class="cls-1" d="m62.57,312.84c.96-.06,1.52.43,1.43,1.49-.09,1.04-.54,1.96-1.69,2.02-1.1.06-1.59-.81-1.65-1.78-.07-1.2.66-1.73,1.91-1.73Z"/><path class="cls-1" d="m166.17,181.91c-.12.75.21,1.75-.7,1.89-.89.14-1.05-.87-1.2-1.51-.27-1.17-.8-2.39-.04-3.57.17-.27.56-.4.85-.13,1,.93.97,2.19,1.09,3.32Z"/><path class="cls-1" d="m352.54,91.94c.01-1.66,2.49-4.99,3.85-5.17.16-.02.41.03.5.14.29.36.08.71-.1,1.06-.59,1.19-2.83,3.3-4.25,3.97Z"/><path class="cls-1" d="m464.55,84.12c.05,1.12-2.42,3.68-3.34,3.55-.7-.1-1.02-.56-.64-1.24.68-1.2,1.66-2.12,2.89-2.73.5-.25,1.02-.18,1.09.42Z"/><path class="cls-1" d="m262.27,145.39c-.46,1.21-1.09,2.36-2.41,2.97-.06.03-.12.06-.18.07-.56.03-.79-.26-.84-.8-.08-.94,1.54-3.15,2.4-3.22.64-.06.91.33,1.03.98Z"/><path class="cls-1" d="m154.71,171.62c-.06.73-.08,1.67-.81,1.35-1.46-.63-1.56-2.23-1.85-3.59-.11-.49.04-1.31.68-1.07,1.54.57,1.74,2.07,1.98,3.31Z"/><path class="cls-1" d="m65.63,280.58c-.53,1.63-2.2.84-3.25,1.4-.47.25-1.17-.44-.96-.84.56-1.06,1.54-1.85,2.73-2.07.92-.16,1.3.63,1.47,1.51Z"/><path class="cls-1" d="m355.61,175.01c-.49,1.13-1.03,2.11-2.32,2.12-.76,0-1.36-.43-1.36-1.3,0-1.2.81-1.77,1.83-1.79.67-.01,1.51.18,1.85.98Z"/><path class="cls-1" d="m392.31,238.59c.5.07,1.5-.3,1.67.55.21,1.04-.93,1.02-1.59,1.26-1.03.38-2.1.64-3.09-.16-.22-.18-.32-.47-.14-.67.8-.86,1.86-1.03,3.14-.98Z"/><path class="cls-1" d="m408.42,242.09c-.18-.01-.72.1-.87-.47-.11-.42.23-.7.54-.94.94-.71,1.99-1.17,3.16-1.35.37-.06.82-.13,1.04.26.22.4-.03.74-.36.99-.97.75-1.95,1.49-3.51,1.52Z"/><path class="cls-1" d="m349.22,381.88c1.06-.06,3.18,2.14,3.19,3.18,0,.49-.23.81-.69.61-1.32-.57-2.56-1.27-3.11-2.72-.24-.64.09-.97.61-1.06Z"/><path class="cls-1" d="m60.01,324.59c.85.13,2.05.16,2.26,1.43.15.94-.74,1.36-1.54,1.35-1.12,0-2.04-.54-2.18-1.75-.09-.83.55-1.07,1.46-1.03Z"/><path class="cls-1" d="m445.9,92.47c-.6,0-.61-.51-.26-1,.83-1.16,1.88-2.12,3.18-2.73.54-.25,1.23-.33,1.11.64-.1.78-2.97,3.06-4.03,3.08Z"/><path class="cls-1" d="m64.94,285.34c-.89-.06-1.73-.9-2.86-.64-.37.09-.67-.56-.56-1.06.14-.61.61-.94,1.15-.65.64.35,1.12.22,1.77.04,1.07-.3,1.49.63,1.72,1.43.28.97-.58.74-1.22.88Z"/><path class="cls-1" d="m57.05,202.29c-1.09-.32-1.84-.9-1.8-2.05.03-.77.46-1.45,1.35-1.32,1.09.16,1.71.97,1.77,2.03.05.84-.56,1.24-1.32,1.34Z"/><path class="cls-1" d="m198.86,117.63c-.06.51-.05.84-.13,1.14-.23.79-.46,1.89-1.44,1.72-1.18-.21-.65-1.26-.51-2.04.09-.51.7-1.14-.35-1.48-.18-.06.34-1.1.39-1.03.49.78,1.79-.24,2.01.93.06.31.04.63.05.76Z"/><path class="cls-1" d="m465.31,207.38c2.12-.5,4.14-.15,6.12.54.2.07.42.34.46.56.06.29-.21.44-.49.43-2.15-.02-4.18-.49-6.09-1.53Z"/><path class="cls-1" d="m137.06,139.92c-1.17-.3-2.4-.52-3.15-1.61-.15-.22.05-.52.3-.61,1.22-.4,2.39-.16,3.51.38.46.22.97.56.77,1.15-.21.63-.83.72-1.44.69Z"/><path class="cls-1" d="m196.08,126.88c-.32.98-.28,2.45-1.74,2.73-.67.13-.66-.8-.62-1.36.07-1.17.22-2.44,1.56-2.77.69-.17.8.65.8,1.39Z"/><path class="cls-1" d="m260.35,129.05c-.19,1.07-.89,1.92-2.09,2.09-.81.12-1.09-.59-1.04-1.31.09-1.39,1.07-1.82,2.27-1.9.65-.04.95.32.86,1.12Z"/><path class="cls-1" d="m147.27,381.22c1.85,1.43,2.55,3.04,3.42,4.51.19.31.27.8-.09,1.07-.38.28-.75.03-1-.28-1.12-1.42-2.05-2.92-2.33-5.3Z"/><path class="cls-1" d="m345.27,102.21c-.61,1.39-1.13,2.96-2.44,3.98-.65.5-.99-.02-.85-.64.36-1.54,1.29-2.78,2.41-3.85.44-.42.82-.23.88.51Z"/><path class="cls-1" d="m115.04,323.35c.4.69,2.03-.14,1.77,1.03-.16.73-1.16,1.74-2.32,1.67-.88-.06-1.45-.7-1.29-1.6.15-.9.88-1.19,1.85-1.11Z"/><path class="cls-1" d="m340.74,346.84c1.97.42,3.52,1.56,4.97,2.86.16.14.28.53.2.68-.17.3-.54.34-.84.14-1.57-1.04-3.32-1.87-4.32-3.68Z"/><path class="cls-1" d="m315.22,121.35c.45.13.7-.24,1.02-.42.75-.42,1.56-.84,2.33-.23.54.43.05.96-.3,1.3-.74.73-1.52,1.49-2.69,1.08-1.1-.39-.03-1.22-.29-1.8,0,0-.07.06-.07.06Z"/><path class="cls-1" d="m431.24,120.59c.54.02,1.22.14.98.8-.44,1.21-1.59,1.6-2.77,1.71-.57.05-1.21-.11-1.23-.88-.02-.74,1.72-1.66,3.02-1.63Z"/><path class="cls-1" d="m446.79,116.86c2.28-1.61,4.35-2.31,6.71-2.74-.79,1.53-3.86,2.81-6.71,2.74Z"/><path class="cls-1" d="m432.86,154.3c-.73-.07-1.64.11-1.68-.89-.03-.79.74-.93,1.39-1.04.13-.02.27-.07.38-.04.79.22,2.14-1.18,2.31.34.14,1.21-1.31,1.52-2.4,1.62Z"/><path class="cls-1" d="m475.7,333.89c1.4.31,2.66.92,3.75,1.83.16.13.18.43.27.65-.22.08-.47.26-.66.21-1.29-.37-2.59-.71-3.68-1.54-.25-.19-.55-.39-.47-.76.09-.43.5-.29.79-.4Z"/><path class="cls-1" d="m144.27,158.36c.04.74-.21,1.14-.87,1.09-1.17-.09-1.86-.83-2.16-1.87-.19-.66.28-1.21.94-1.07,1.04.22,1.82.87,2.09,1.85Z"/><path class="cls-1" d="m140.48,365.81c1.85.76,2.54,2.15,3.38,3.39.18.27.27.6-.03.88-.3.28-.62.16-.86-.05-1.24-1.04-2.13-2.28-2.49-4.22Z"/><path class="cls-1" d="m314.82,130.91c-.44-.95-1.23-.63-2.4.03.96-1.86,1.75-2.95,2.99-3.67.27-.16.6-.33.9-.1.32.25.14.58,0,.86-.51.95-1.02,1.9-1.52,2.86,0,0,.04.02.04.02Z"/><path class="cls-1" d="m480.14,154.84c.6.03.93.02,1.25.08.49.09,1.15.12,1.09.81-.05.51-.61.58-1.07.63-.77.09-1.53.25-2.29.27-.49.01-1.14-.06-1.24-.67-.11-.67.57-.78,1.03-.92.48-.15,1.01-.17,1.24-.2Z"/><path class="cls-1" d="m312.93,127.12c-.12.75-.09,1.74-1.15,1.68-.94-.05-1.15-.92-1.12-1.75.02-.76-.09-1.79.96-1.8,1.04,0,1.16,1.03,1.32,1.87Z"/><path class="cls-1" d="m72.47,261.31c-2.22-1.34-3.4-3.16-3.36-4.91,2.06,1.12,2.49,3.17,3.36,4.91Z"/><path class="cls-1" d="m436.11,90.19c-.69,1.33-1.14,2.72-2.28,3.61-.64.5-.98.03-.87-.6.24-1.46,1.17-2.53,2.26-3.44.61-.51.68.12.89.43Z"/><path class="cls-1" d="m252.52,125.76c-.04.92-1.66,2.94-2.31,2.84-.57-.09-.72-.51-.57-1,.36-1.18.79-2.36,2.15-2.7.57-.14.74.35.73.86Z"/><path class="cls-1" d="m46.97,333.92c-.22.85-.7,1.51-1.59,1.37-.65-.11-1.41-.5-1.31-1.41.1-.93.86-1.31,1.64-1.35.83-.03,1.21.6,1.26,1.39Z"/><path class="cls-1" d="m111.36,327.75c-.73.04-1.35-.21-1.31-1.01.04-.85.39-1.69,1.43-1.73.75-.03,1.43.36,1.46,1.2.04,1-.61,1.47-1.58,1.54Z"/><path class="cls-1" d="m414.22,89.7c-.04.77-2.42,2.55-3.11,2.31-.46-.16-.58-.54-.36-.93.62-1.08,1.35-2.08,2.78-2.1.43,0,.75.21.7.72Z"/><path class="cls-1" d="m330.67,130.82c-.16.26-.35.5-.47.78-.46,1-1.22,1.34-2.17.77-.83-.5-.81-1.28-.2-1.96.71-.8,1.5-.91,2.28-.03.16.18.38.31.58.46,0,0-.02-.02-.02-.02Z"/><path class="cls-1" d="m479.39,128.71c.64.05,1.55-.07,1.43.66-.26,1.65-1.93,1.08-2.96,1.54-.55.25-.91-.1-.86-.64.15-1.54,1.5-1.27,2.39-1.57Z"/><path class="cls-1" d="m405.67,77.43c.33-1.95.99-3.26,1.68-4.55.34-.65.89-1.07,1.55-.6.64.45-.08.86-.3,1.22-.81,1.29-1.56,2.62-2.92,3.93Z"/><path class="cls-1" d="m202.26,120.5c-.08.57-.42,1.6-1.63,1.8-.62.1-.85-.56-.72-1.11.26-1.06.52-2.28,1.84-2.43.61-.07.63.69.51,1.74Z"/><path class="cls-1" d="m406.38,164.49c.95.22,2.5-.22,2.45.93-.05,1.23-1.56.53-2.42.62-.81.09-2.04-.04-1.97-.97.07-.91,1.31-.31,1.93-.58Z"/><path class="cls-1" d="m450.78,98.49c.5-1.55,1.53-2.66,2.69-3.67.28-.24.64-.55,1-.16.33.36.08.77-.14,1.05-.94,1.2-2.03,2.23-3.54,2.78Z"/><path class="cls-1" d="m429.57,143.98c1.11-1.09,2.47-1.28,3.89-1.26.42,0,.8.19.84.63.04.45-.35.72-.72.79-1.32.24-2.65.18-4.01-.16Z"/><path class="cls-1" d="m263.43,363.61c-.04.48.09.86-.31,1-.39.14-.6-.15-.75-.44-.39-.74-.83-1.47-1.11-2.26-.19-.53-.85-1.3.02-1.68.59-.25.98.53,1.23,1.01.41.8.66,1.67.93,2.37Z"/><path class="cls-1" d="m453.61,85.25c-.04.64-1.82,2.58-2.39,2.42-.42-.11-.65-.47-.49-.9.41-1.11.96-2.14,2.25-2.4.46-.09.68.26.63.88Z"/><path class="cls-1" d="m101.84,250.6c.79-.05,1.1.35.97,1.16-.14.89-.66,1.43-1.54,1.32-.6-.07-1.32-.41-1.22-1.21.12-.95.7-1.47,1.78-1.27Z"/><path class="cls-1" d="m444.09,100.07c.71-.99,1.37-2.03,2.16-2.96.33-.39.89-.96,1.47-.46.49.43.05.98-.24,1.38-.81,1.09-1.84,1.89-3.39,2.04Z"/><path class="cls-1" d="m65.41,147.9c-.91-.09-1.42-.55-1.44-1.37-.02-.79.41-1.43,1.27-1.4.78.03,1.33.55,1.37,1.37.05.84-.44,1.3-1.2,1.4Z"/><path class="cls-1" d="m328.6,341.22c2.04.68,3.16,2.03,4.55,2.96.22.15.46.5.16.82-.26.28-.63.23-.87.03-1.28-1.08-2.71-2.01-3.84-3.81Z"/><path class="cls-1" d="m275.16,250.29c.5-.02.93.2.81.62-.38,1.31-1.58,1.56-2.7,1.85-.37.09-.96-.03-.76-.52.47-1.17,1.54-1.66,2.65-1.95Z"/><path class="cls-1" d="m490.12,138.82c.67.15,1.56.17,1.4,1.18-.13.79-.82,1.22-1.59,1.07-.64-.13-1.6-.21-1.56-1.13.05-.97.91-1.11,1.75-1.12Z"/><path class="cls-1" d="m282.86,328.81c-1.33-.46-2.13-1.36-2.84-2.36-.19-.27-.24-.61.02-.9.26-.29.61-.29.88-.1,1.13.77,2.19,1.59,1.94,3.35Z"/><path class="cls-1" d="m364.52,101.84c1.14-1.26,2.38-1.91,3.68-2.45.35-.14.82-.16.97.33.11.36-.17.63-.46.76-1.26.57-2.42,1.45-4.19,1.36Z"/><path class="cls-1" d="m469.98,199.93c2.3.32,4.73-.3,6.97.8-2.37.27-4.67-.19-6.97-.8Z"/><path class="cls-1" d="m389.6,268.6c1.61-.2,2.78-.14,3.91.38.38.18.67.49.59.91-.11.55-.6.67-1.07.57-1.19-.25-2.19-.88-3.43-1.86Z"/><path class="cls-1" d="m118.69,233.17c-.81-.08-1.32-.52-1.3-1.34.02-.74.53-1.14,1.26-1.14.7,0,1.31.24,1.28,1.06-.03.75-.37,1.34-1.25,1.42Z"/><path class="cls-1" d="m443.05,205.08c-1.92,1.35-3.5.24-5.12-.14,1.63-.47,3.25-1.09,5.12.14Z"/><path class="cls-1" d="m49.33,324.33c-.08.68-.45,1.05-1.14,1-.98-.07-1.52-.63-1.48-1.61.03-.62.35-1.14,1.07-1.07.98.1,1.38.8,1.54,1.68Z"/><path class="cls-1" d="m302.8,270.41c-2.3-.05-3.62-1.65-5.79-2.41,1.98-.27,4.64.89,5.79,2.41Z"/><path class="cls-1" d="m309.77,88.94c-.27-1.75-.48-3-.64-4.25-.05-.35-.14-.85.32-.99.47-.14.7.3.78.65.32,1.41.55,2.82-.46,4.59Z"/><path class="cls-1" d="m49.46,330.04c-.23.74-.53,1.4-1.39,1.37-.62-.03-1.11-.37-1.07-1.09.05-.81.5-1.35,1.34-1.26.52.06,1.18.21,1.13.98Z"/><path class="cls-1" d="m51.53,322.98c.85.09,1.33.56,1.28,1.37-.04.63-.48,1.03-1.17,1-.79-.04-1.38-.39-1.36-1.26.02-.77.55-1.08,1.25-1.12Z"/><path class="cls-1" d="m432.63,160.4c1.61-.84,3.06-.53,4.5-.36.16.02.38.36.4.56.03.3-.28.41-.54.43-1.4.08-2.81.22-4.35-.63Z"/><path class="cls-1" d="m400.37,238.07c1.53-.47,2.98-.07,4.43.28.29.07.63.28.52.68-.1.41-.52.43-.77.3-1.32-.67-2.93-.23-4.18-1.26Z"/><path class="cls-1" d="m466.35,248.42c1.65-.44,2.94-.31,4.23-.01.34.08.82.22.79.68-.04.53-.55.47-.89.43-1.29-.18-2.68.1-4.13-1.1Z"/><path class="cls-1" d="m322.74,100.82c.25-.8.3-1.79,1.13-2.41.09-.06.42.02.48.13.62,1-.12,1.81-.43,2.67-.14.4-.32.93-.89.73-.43-.15-.27-.65-.3-1.12Z"/><path class="cls-1" d="m105.21,320.61c-.67-.1-1.13-.41-1.08-1.13.05-.73.44-1.2,1.25-1.17.68.03,1.13.33,1.06,1.07-.07.73-.46,1.19-1.23,1.23Z"/><path class="cls-1" d="m495.22,344.01c-2.01.21-3.47-.07-4.72-1.79,2.01-.21,3.17.82,4.72,1.79Z"/><path class="cls-1" d="m56.18,291.91c-.09.74-.48,1.18-1.25,1.15-.65-.03-1.12-.4-1.15-1.05-.04-.74.41-1.22,1.15-1.25.74-.03,1.17.4,1.25,1.15Z"/><path class="cls-1" d="m460.44,171.98c.73.24,1.9.07,2.06,1.19.07.52-.79.57-1.27.51-.79-.11-1.86-.02-2.04-1.06-.11-.66.67-.59,1.25-.64Z"/><path class="cls-1" d="m255.93,95.61c-1.46-1.09-2.29-2.16-2.02-4.11,1.52,1.02,1.92,2.31,2.02,4.11Z"/><path class="cls-1" d="m456.58,182.11c-.46-.12-1.32.11-1.1-.64.24-.81,1.19-.89,1.97-.88.51,0,1.48-.13,1.28.62-.24.9-1.37.74-2.15.9Z"/><path class="cls-1" d="m286.45,337.42c0,.68-.03,1.3-.59,1.23-1.03-.14-1.14-1.1-1.22-1.91-.05-.49.11-1.24.72-1.11.98.21.93,1.22,1.09,1.8Z"/><path class="cls-1" d="m281.02,248.05c-.31.76-.97.96-1.7.96-.58,0-1.35-.09-1.27-.81.09-.77.88-1.04,1.63-1.04.59,0,1.14.18,1.34.89Z"/><path class="cls-1" d="m170.61,80.27c.1-.52-.1-1.33.55-1.29,1.14.08.92,1.18,1.04,1.94.08.49.08,1.33-.49,1.26-1.02-.12-.91-1.19-1.11-1.92Z"/><path class="cls-1" d="m318,82.48c-.54-1.27-.33-2.3-.27-3.31.02-.34.2-.68.53-.72.38-.05.57.29.57.63,0,1.11.26,2.29-.83,3.4Z"/><path class="cls-1" d="m378.85,200.01c1.25-1.32,2.39-.81,3.52.19.24.22.56.4.33.78-.2.34-.57.29-.86.18-1.02-.39-2.02-.81-3.04-1.21,0,0,.05.06.05.06Z"/><path class="cls-1" d="m378.4,406.95c-.02.48-.29.7-.62.53-.99-.51-1.8-1.24-2.1-2.35-.08-.31.19-.64.61-.47,1.08.44,1.68,1.33,2.12,2.29Z"/><path class="cls-1" d="m394.59,201.38c-1.02-.49-2.43-.06-2.81-1.31-.15-.49.68-.39,1.07-.28.93.26,2.17.09,2.53,1.27.13.44-.53.33-.79.32Z"/><path class="cls-1" d="m156.57,145.23c.08-.46-.08-1.27.61-1.14.97.19.97,1.22,1.1,2.02.07.43.1,1.07-.5,1.01-1.09-.1-1.03-1.11-1.21-1.9Z"/><path class="cls-1" d="m436.04,196.78c-1.66.75-3.32.18-5,.06,1.65-.44,3.31-.57,5-.06Z"/><path class="cls-1" d="m487.19,209.52c-1.57.59-3.1.12-4.64-.24,1.56-.34,3.11-.51,4.64.24Z"/><path class="cls-1" d="m479.34,118.54c-.58-.09-.79-.45-.66-.95.2-.77.84-1.09,1.54-1.23.45-.09.75.23.61.69-.24.74-.61,1.4-1.49,1.49Z"/><path class="cls-1" d="m448.37,144.99c.5.16,1.36-.07,1.3.74-.05.75-.83.85-1.48.88-.54.03-1.15-.05-1.18-.67-.04-.88.73-.88,1.37-.95Z"/><path class="cls-1" d="m269.45,72.94c-.07-1-.15-2-.19-3,0-.3.04-.7.45-.74.49-.05.67.33.7.73.08,1.05-.16,2.04-.97,3Z"/><path class="cls-1" d="m470.75,198.84c1.59-.31,3.14-.37,4.57.49-1.58.35-3.11.24-4.57-.49Z"/><path class="cls-1" d="m349.53,316.57c-.58-.61-.86-.85-1.08-1.15-.41-.54-1.13-.92-1.05-1.74.02-.24.3-.49.56-.32.66.41,1.32.86,1.55,1.65.1.34.02.74.02,1.56Z"/><path class="cls-1" d="m430.75,100.91c.03-.57.36-1,1.01-1.08.56-.06,1.08.19,1.1.78.02.76-.62,1.05-1.28,1.15-.53.08-.83-.21-.83-.85Z"/><path class="cls-1" d="m267.75,273.39c.42-.07.73-.19,1.03-.17.81.05,1.71-.34,2.36.43.09.1.08.45,0,.5-.86.52-1.75.28-2.62.04-.29-.08-.61-.2-.77-.81Z"/><path class="cls-1" d="m264.18,244.17c-.19.62-.59.95-1.16.88-.63-.08-1.41-.25-1.4-1.05,0-.62.68-.75,1.19-.7.58.05,1.13.27,1.37.87Z"/><path class="cls-1" d="m329.19,119.46c-.03.53-.11,1.06-.77,1.09-.65.03-.86-.5-.89-1.02-.04-.56.02-1.28.74-1.32.73-.04.74.72.93,1.24Z"/><path class="cls-1" d="m159.39,130.01c-.19-.23-.31-.31-.35-.42-.4-.96-.68-1.94-.18-2.93.13-.26.5-.16.6.1.41,1.04.54,2.09-.07,3.25Z"/><path class="cls-1" d="m113.87,320.61c0,.69-.5.91-.98,1.01-.63.13-1.17-.17-1.29-.82-.11-.62.36-.91.92-.94.6-.03,1.13.12,1.35.75Z"/><path class="cls-1" d="m156.82,357.49c-.9.18-1.77,1.58-2.61.25-.54-.86.26-1.4,1.34-.9.43.2.85.44,1.27.65Z"/><path class="cls-1" d="m397.14,105.39c.7-.01,1,.42.96.98-.05.52-.36,1.02-1,1-.64-.01-.92-.55-.95-1.05-.04-.6.46-.86,1-.94Z"/><path class="cls-1" d="m420.52,105.99c-.5-.09-.82-.36-.73-.89.12-.71.58-1.12,1.3-1.12.51,0,.85.33.76.86-.13.7-.63,1.05-1.33,1.16Z"/><path class="cls-1" d="m392.84,247.23c-.1.7-.58.7-1.02.69-.68-.03-1.37-.21-1.42-.99-.03-.52.52-.66,1-.64.7.02,1.22.31,1.44.95Z"/><path class="cls-1" d="m127.3,337.87c-.03.56-.37.95-.93.99-.64.04-1.11-.33-1.2-.99-.08-.63.4-.98.92-1.03.64-.07,1.06.35,1.21,1.03Z"/><path class="cls-1" d="m387.64,90.22c-.25-.6-.12-.91.1-1.13.52-.51.55-1.49,1.49-1.58.12-.01.36.22.38.36.13,1.01-.66,1.44-1.29,1.96-.18.15-.42.24-.69.39Z"/><path class="cls-1" d="m44.41,331.6c-.02.62-.38,1.01-.95,1.01-.56,0-.99-.35-1.02-.94-.02-.52.31-.82.84-.86.59-.04.99.2,1.13.79Z"/><path class="cls-1" d="m168.33,124.65c1.85.59,2.56,1.58,3.55,3.11-1.85-.61-2.65-1.55-3.55-3.11Z"/><path class="cls-1" d="m194.41,397.03c-.39-.07-.65-.26-.52-.64.26-.77.39-1.67,1.24-2.03.31-.13.54.33.43.65-.25.74-.2,1.68-1.14,2.02Z"/><path class="cls-1" d="m402.99,174.71q2.1-.88,3.98-.59c-1.07,1.23-2.24.87-3.98.59Z"/><path class="cls-1" d="m56.01,285.53c-.68-.2-1.04-.66-1.01-1.39.02-.48.38-.65.79-.6.71.08,1.2.43,1.15,1.23-.03.55-.41.74-.93.76Z"/><path class="cls-1" d="m40.95,335.44c-.56-.08-.88-.41-.81-1.03.06-.5.34-.86.87-.81.55.05.99.39.99.98,0,.59-.39.9-1.05.87Z"/><path class="cls-1" d="m86.26,327.11c.6.11,1.06.33,1.1.95.04.57-.3.81-.83.79-.58-.02-1.02-.3-1.07-.89-.05-.54.38-.76.79-.85Z"/><path class="cls-1" d="m490.09,100.07c-.51-.01-.7-.35-.63-.77.12-.7.56-1.18,1.28-1.27.47-.06.75.27.64.73-.16.67-.6,1.13-1.29,1.32Z"/><path class="cls-1" d="m475.42,109.11c0-.17-.02-.25,0-.29.49-.88,1.28-1.18,2.23-1.06.26.03.44.34.22.57-.67.7-1.44,1.14-2.45.78Z"/><path class="cls-1" d="m485.01,143.46c-.53-.07-1.23.09-1.21-.46.02-.9.9-.69,1.47-.73.41-.03,1.12-.1,1.11.4-.02.88-.92.61-1.37.79Z"/><path class="cls-1" d="m455.05,143.65c.99-.86,1.71-1.31,2.68-1.02.26.08.42.38.21.6-.7.72-1.57.7-2.88.42Z"/><path class="cls-1" d="m424.75,139.65c.37-1.1.65-1.92,1.76-1.97.29-.01.54.26.45.5-.32.84-.95,1.34-2.21,1.47Z"/><path class="cls-1" d="m269.73,118.47c-.54-.13-.66-.57-.71-1-.08-.59.03-1.26.65-1.4.57-.13.61.54.66.93.08.56-.04,1.12-.6,1.46Z"/><path class="cls-1" d="m120.97,261.16c.73-.03,1.37-.3,2.03-.48.44-.12.92-.08,1.25.28.18.2.09.48-.12.67-.37.33-.8.41-1.25.25-.64-.22-1.27-.48-1.9-.73Z"/><path class="cls-1" d="m153.28,285.62c-.08.88-.58,1.34-1.4,1.31-.81-.03-1.36-.55-1.29-1.38.06-.7.55-1.17,1.3-1.18.83-.01,1.32.41,1.38,1.25Z"/></svg>